<svg xmlns="http://www.w3.org/2000/svg" version="1.1" xmlns:xlink="http://www.w3.org/1999/xlink" xmlns:svgjs="http://svgjs.com/svgjs" width="512" height="512" x="0" y="0" viewBox="0 0 60 60" style="enable-background:new 0 0 512 512" xml:space="preserve" class=""><g><g fill="none" fill-rule="nonzero"><g transform="translate(1 1)"><path fill="#f0f7f9" d="M58 5v7H0V5a5 5 0 0 1 5-5h48a5 5 0 0 1 5 5z" data-original="#a4c2f7" class=""></path><path fill="#85a3ad" d="M53 0h-3a5 5 0 0 1 5 5v7h3V5a5 5 0 0 0-5-5z" data-original="#7facfa" class=""></path><path fill="#f0f7f9" d="M58 12v34a5 5 0 0 1-5 5H5a5 5 0 0 1-5-5V12z" data-original="#e8edfc" class=""></path><path fill="#85a3ad" d="M55 12v34a5 5 0 0 1-5 5h3a5 5 0 0 0 5-5V12z" data-original="#cad9fc" class=""></path><g fill="#e8edfc"><circle cx="6" cy="6" r="2" fill="#f0f7f9" data-original="#e8edfc" class=""></circle><circle cx="14" cy="6" r="2" fill="#f0f7f9" data-original="#e8edfc" class=""></circle><circle cx="22" cy="6" r="2" fill="#f0f7f9" data-original="#e8edfc" class=""></circle></g><path fill="#85a3ad" d="M52 8a2 2 0 1 0 0-4H42a2 2 0 1 0 0 4z" data-original="#7facfa" class=""></path><rect width="44" height="18" x="7" y="40" fill="#f0f7f9" rx="9" data-original="#a4c2f7" class=""></rect><path fill="#85a3ad" d="M42 40h-3a9 9 0 0 1 0 18h3a9 9 0 0 0 0-18z" data-original="#7facfa" class=""></path><rect width="20" height="8" x="5" y="20" fill="#f0f7f9" rx="2" data-original="#e8edfc" class=""></rect><path fill="#85a3ad" d="M23 20h-3a2.006 2.006 0 0 1 2 2v4a2.006 2.006 0 0 1-2 2h3a2.006 2.006 0 0 0 2-2v-4a2.006 2.006 0 0 0-2-2z" data-original="#cad9fc" class=""></path><path fill="#f0f7f9" d="M25 26v8a2.006 2.006 0 0 1-2 2H7a2.006 2.006 0 0 1-2-2v-8a2.006 2.006 0 0 0 2 2h16a2.006 2.006 0 0 0 2-2z" data-original="#e8edfc" class=""></path><path fill="#85a3ad" d="M23 28h-1v6a2.006 2.006 0 0 1-2 2h3a2.006 2.006 0 0 0 2-2v-8a2.006 2.006 0 0 1-2 2z" data-original="#cad9fc" class=""></path><rect width="6" height="4" x="12" y="26" fill="#f0f7f9" rx="1" data-original="#a4c2f7" class=""></rect></g><path fill="#f0f7f9" d="M11.231 52H9a5 5 0 0 1-5-5V6a5 5 0 0 1 5-5H6a5 5 0 0 0-5 5v41a5 5 0 0 0 5 5h2.231A9 9 0 0 0 17 59h3a9 9 0 0 1-8.769-7z" data-original="#ffffff" class=""></path><path fill="#f0f7f9" d="M0 39h2v8H0z" data-original="#ffffff" class=""></path><g fill="#428dff"><path d="M16 45a3 3 0 0 0-3 3v6a1 1 0 0 0 2 0v-2h2v2a1 1 0 0 0 2 0v-6a3 3 0 0 0-3-3zm-1 5v-2a1 1 0 0 1 2 0v2zM24 45h-2a1 1 0 0 0-1 1v8a1 1 0 0 0 2 0v-3h1a3 3 0 0 0 0-6zm0 4h-1v-2h1a1 1 0 0 1 0 2z" fill="#285b6c" data-original="#428dff" class=""></path><circle cx="1" cy="43" r="1" fill="#285b6c" data-original="#428dff" class=""></circle><path d="M54 0H6a6.006 6.006 0 0 0-6 6v33a1 1 0 0 0 2 0V14h56v33a4 4 0 0 1-4 4h-1.051A9.992 9.992 0 0 0 43 40H17a9.992 9.992 0 0 0-9.949 11H6a4 4 0 0 1-4-4 1 1 0 0 0-2 0 6.006 6.006 0 0 0 6 6h1.461A10.018 10.018 0 0 0 17 60h26a10.018 10.018 0 0 0 9.539-7H54a6.006 6.006 0 0 0 6-6V6a6.006 6.006 0 0 0-6-6zM43 58H17a8 8 0 1 1 0-16h26a8 8 0 1 1 0 16zM2 12V6a4 4 0 0 1 4-4h48a4 4 0 0 1 4 4v6z" fill="#285b6c" data-original="#428dff" class=""></path><path d="M7 4a3 3 0 1 0 0 6 3 3 0 0 0 0-6zm0 4a1 1 0 1 1 0-2 1 1 0 0 1 0 2zM15 4a3 3 0 1 0 0 6 3 3 0 0 0 0-6zm0 4a1 1 0 1 1 0-2 1 1 0 0 1 0 2zM23 4a3 3 0 1 0 0 6 3 3 0 0 0 0-6zm0 4a1 1 0 1 1 0-2 1 1 0 0 1 0 2zM53 4H43a3 3 0 0 0 0 6h10a3 3 0 0 0 0-6zm0 4H43a1 1 0 0 1 0-2h10a1 1 0 0 1 0 2zM32 45h-2a1 1 0 0 0-1 1v8a1 1 0 0 0 2 0v-3h1a3 3 0 0 0 0-6zm0 4h-1v-2h1a1 1 0 0 1 0 2zM40 53h-1v-7a1 1 0 0 0-2 0v7a2 2 0 0 0 2 2h1a1 1 0 0 0 0-2zM45.168 45.445 44 47.2l-1.168-1.752a1 1 0 0 0-1.664 1.11L43 49.3V54a1 1 0 0 0 2 0v-4.7l1.832-2.748a1 1 0 0 0-1.664-1.11zM24 38a3 3 0 0 0 3-3V23a3 3 0 0 0-3-3h-2.382l-1.171-2.342A2.985 2.985 0 0 0 17.764 16h-3.528a2.985 2.985 0 0 0-2.683 1.658L10.382 20H8a3 3 0 0 0-3 3v12a3 3 0 0 0 3 3zM13.342 18.553a.993.993 0 0 1 .894-.553h3.528a.993.993 0 0 1 .894.553L19.382 20h-6.764zM7 23a1 1 0 0 1 1-1h16a1 1 0 0 1 1 1v4a1 1 0 0 1-1 1h-4a2 2 0 0 0-2-2h-4a2 2 0 0 0-2 2H8a1 1 0 0 1-1-1zm11 7h-4v-2h4zM7 35v-5.184c.32.118.659.18 1 .184h4a2 2 0 0 0 2 2h4a2 2 0 0 0 2-2h4c.341-.003.68-.066 1-.184V35a1 1 0 0 1-1 1H8a1 1 0 0 1-1-1zM31 20h5a1 1 0 0 0 0-2h-5a1 1 0 0 0 0 2zM31 24h23a1 1 0 0 0 0-2H31a1 1 0 0 0 0 2zM54 26h-5a1 1 0 0 0 0 2h5a1 1 0 0 0 0-2zM31 28h14a1 1 0 0 0 0-2H31a1 1 0 0 0 0 2zM54 30H38a1 1 0 0 0 0 2h16a1 1 0 0 0 0-2zM31 32h3a1 1 0 0 0 0-2h-3a1 1 0 0 0 0 2zM31 36h13a1 1 0 0 0 0-2H31a1 1 0 0 0 0 2z" fill="#285b6c" data-original="#428dff" class=""></path></g></g></g></svg>