<svg width="512" height="512" viewBox="0 0 512 512" fill="none" xmlns="http://www.w3.org/2000/svg">
<path d="M428.488 279.143C427.669 279.135 426.87 279.39 426.207 279.87C425.544 280.35 425.052 281.03 424.804 281.809C424.555 282.589 424.563 283.428 424.826 284.203C425.089 284.978 425.594 285.649 426.266 286.116C430.142 288.86 432.205 290.494 432.256 290.529C432.651 290.843 433.103 291.077 433.588 291.216C434.073 291.355 434.58 291.397 435.082 291.34C435.583 291.283 436.068 291.128 436.509 290.883C436.95 290.639 437.339 290.31 437.653 289.915C437.967 289.52 438.2 289.068 438.339 288.583C438.478 288.098 438.52 287.591 438.463 287.09C438.406 286.588 438.251 286.103 438.006 285.662C437.762 285.221 437.433 284.833 437.038 284.519C437.038 284.519 434.852 282.778 430.71 279.844C430.058 279.389 429.283 279.144 428.488 279.143Z" fill="#D7D7D7"/>
<path d="M425.313 280.781C424.745 281.619 424.528 282.646 424.71 283.642C424.892 284.638 425.458 285.523 426.286 286.106C427.976 287.334 430.382 286.925 431.611 285.184C432.84 283.443 432.43 281.088 430.689 279.859C430.024 279.347 429.256 279.142 428.482 279.142C427.862 279.142 427.25 279.29 426.698 279.575C426.147 279.86 425.672 280.274 425.313 280.781ZM233.984 213.76C231.936 213.76 230.195 215.45 230.144 217.498C230.144 218.522 230.497 219.494 231.219 220.262C231.936 220.979 232.909 221.389 233.928 221.44C238.638 221.542 243.609 221.747 248.571 222.106C250.721 222.259 252.513 220.621 252.667 218.522V218.368C252.718 216.32 251.131 214.579 249.083 214.477C244.116 214.118 239.048 213.862 234.081 213.76H233.984ZM219.136 213.76H219.085C213.965 213.914 208.896 214.17 204.032 214.528C203.047 214.612 202.131 215.065 201.466 215.796C200.802 216.527 200.438 217.482 200.448 218.47V218.675C200.653 220.774 202.547 222.31 204.6 222.208C209.567 221.85 214.482 221.594 219.238 221.44C221.286 221.389 222.93 219.75 222.976 217.702V217.549C222.949 216.543 222.535 215.587 221.819 214.881C221.103 214.175 220.141 213.773 219.136 213.76ZM263.629 215.808C261.678 215.808 260.045 217.293 259.789 219.238V219.597C259.767 220.549 260.1 221.475 260.724 222.194C261.348 222.914 262.217 223.375 263.163 223.488C268.18 224.051 273.096 224.768 277.709 225.536C278.258 225.63 278.821 225.602 279.359 225.454C279.896 225.306 280.394 225.042 280.818 224.681C281.243 224.32 281.583 223.87 281.814 223.363C282.045 222.856 282.163 222.304 282.158 221.747C282.214 219.853 280.827 218.266 278.932 217.958C273.71 217.088 268.846 216.422 264.089 215.859C263.936 215.859 263.782 215.808 263.629 215.808ZM189.542 216.013C189.394 216.013 189.189 216.013 189.03 216.064C184.064 216.678 179.046 217.446 174.182 218.317C173.28 218.468 172.462 218.94 171.879 219.645C171.296 220.35 170.987 221.242 171.008 222.157C171.008 222.362 171.008 222.566 171.064 222.771C171.417 224.819 173.419 226.253 175.519 225.894C180.28 225.024 185.144 224.307 190.003 223.693C191.954 223.437 193.439 221.747 193.382 219.75C193.382 219.648 193.331 219.494 193.331 219.392C193.075 217.446 191.437 216.013 189.542 216.013ZM292.966 220.621C291.123 220.621 289.536 221.901 289.177 223.642C289.126 223.949 289.126 224.205 289.126 224.461C289.12 225.337 289.417 226.188 289.968 226.87C290.519 227.551 291.289 228.021 292.147 228.198C296.806 229.171 301.624 230.298 306.483 231.526C308.485 232.038 310.635 230.758 311.142 228.762C311.25 228.454 311.25 228.096 311.25 227.789C311.25 226.048 310.072 224.512 308.377 224.102C303.775 222.925 298.803 221.747 293.739 220.672C293.473 220.621 293.222 220.621 292.966 220.621ZM160.256 221.184C160 221.184 159.693 221.235 159.437 221.286C154.629 222.362 149.76 223.642 144.845 225.024C144.02 225.252 143.296 225.748 142.786 226.435C142.276 227.121 142.009 227.958 142.029 228.813C142.058 229.395 142.217 229.964 142.494 230.477C142.771 230.99 143.16 231.434 143.631 231.778C144.102 232.122 144.644 232.355 145.217 232.463C145.79 232.57 146.38 232.547 146.944 232.397C151.598 231.117 156.365 229.888 161.126 228.813C162.867 228.403 164.096 226.918 164.096 225.126C164.147 224.819 164.096 224.512 163.993 224.154C163.795 223.31 163.319 222.559 162.64 222.02C161.962 221.481 161.122 221.186 160.256 221.184ZM321.792 227.942H321.741C320.916 227.939 320.113 228.201 319.449 228.69C318.785 229.179 318.296 229.868 318.054 230.656C317.951 231.022 317.899 231.402 317.901 231.782C317.901 233.472 319.027 234.957 320.614 235.418C325.069 236.749 329.518 238.182 334.336 239.821L334.643 239.923C335.601 240.237 336.643 240.167 337.551 239.728C338.458 239.288 339.159 238.514 339.507 237.568C339.661 237.107 339.763 236.698 339.712 236.237C339.712 234.598 338.637 233.165 337.152 232.653C332.549 231.066 327.731 229.53 322.867 228.096C322.509 227.994 322.15 227.942 321.792 227.942ZM131.686 229.222C131.277 229.222 130.867 229.325 130.457 229.427C125.714 231.042 121.003 232.749 116.326 234.547C115.601 234.854 114.982 235.366 114.546 236.022C114.11 236.677 113.876 237.446 113.874 238.234C113.874 238.694 113.976 239.104 114.13 239.565C114.893 241.459 117.202 242.483 119.142 241.715C123.801 239.923 128.461 238.234 132.915 236.749C133.875 236.418 134.667 235.722 135.117 234.811C135.568 233.9 135.641 232.849 135.321 231.885C135.073 231.115 134.588 230.443 133.935 229.964C133.283 229.486 132.495 229.227 131.686 229.222ZM349.849 237.568C348.847 237.564 347.884 237.953 347.165 238.652C346.447 239.351 346.032 240.304 346.009 241.306C345.986 242.098 346.21 242.879 346.649 243.539C347.088 244.2 347.722 244.707 348.462 244.992C353.024 246.733 357.576 248.627 362.081 250.573H362.132C363.976 251.392 366.285 250.419 367.104 248.576C367.309 248.115 367.411 247.603 367.457 247.091C367.457 245.504 366.536 244.122 365.102 243.507C360.704 241.613 356.04 239.667 351.227 237.824C350.792 237.64 350.322 237.553 349.849 237.568ZM103.987 240.026C103.475 240.026 102.963 240.128 102.451 240.333C97.9455 242.33 93.4911 244.48 89.1391 246.63C89.0827 246.63 88.9855 246.682 88.8267 246.733L88.4735 246.938V246.989C87.9351 247.349 87.494 247.837 87.1894 248.408C86.8848 248.98 86.7262 249.618 86.7275 250.266C86.7275 250.829 86.8811 251.392 87.1371 251.904C87.6083 252.806 88.4103 253.491 89.3751 253.816C90.3399 254.14 91.3928 254.079 92.3135 253.645C96.4095 251.597 100.756 249.498 105.216 247.501L105.574 247.347C107.003 246.733 107.873 245.35 107.822 243.763C107.822 243.251 107.72 242.79 107.515 242.278C107.209 241.601 106.713 241.027 106.086 240.627C105.46 240.227 104.73 240.018 103.987 240.026ZM377.139 249.344C376.411 249.351 375.699 249.561 375.083 249.95C374.467 250.338 373.972 250.891 373.652 251.546C373.377 252.064 373.255 252.65 373.299 253.235C373.299 254.669 374.113 256 375.449 256.666C379.801 258.714 384.205 260.966 388.603 263.27C390.446 264.243 392.852 263.475 393.779 261.683C394.259 260.78 394.362 259.723 394.065 258.744C393.767 257.765 393.094 256.944 392.192 256.461C387.999 254.259 383.488 252.006 378.777 249.754C378.265 249.498 377.702 249.344 377.139 249.344ZM77.4143 253.286C76.6929 253.283 75.9843 253.478 75.3663 253.85C74.5333 254.385 73.9333 255.215 73.6865 256.174C73.4396 257.133 73.5642 258.15 74.0351 259.021C74.9567 260.659 77.0559 261.427 78.8427 260.71C78.9963 260.659 79.1551 260.557 79.3087 260.506C80.5323 259.789 81.3055 258.509 81.2543 257.075C81.2543 256.461 81.1007 255.795 80.7935 255.232C80.4516 254.639 79.959 254.146 79.3655 253.805C78.7721 253.463 78.099 253.284 77.4143 253.286ZM403.405 263.219C402.073 263.219 400.793 263.936 400.077 265.114C399.776 265.684 399.601 266.313 399.565 266.957C399.565 268.339 400.281 269.67 401.51 270.387C405.811 272.845 410.061 275.405 414.105 277.965C414.742 278.372 415.486 278.581 416.241 278.565C416.997 278.549 417.731 278.31 418.35 277.877C418.97 277.444 419.447 276.836 419.721 276.132C419.995 275.428 420.055 274.658 419.891 273.92C419.686 272.896 419.072 272.026 418.201 271.514C414.208 268.954 409.907 266.342 405.35 263.731C404.762 263.383 404.088 263.206 403.405 263.219Z" fill="#D7D7D7"/>
<path d="M77.3631 253.317C76.7127 253.317 76.0729 253.482 75.5046 253.798C73.2432 255.056 70.9954 256.338 68.7615 257.644C68.3262 257.898 67.9452 258.236 67.6404 258.638C67.3355 259.039 67.1128 259.497 66.9849 259.985C66.857 260.473 66.8265 260.981 66.895 261.481C66.9635 261.98 67.1297 262.461 67.3842 262.897C67.6387 263.332 67.9765 263.713 68.3782 264.018C68.7799 264.323 69.2378 264.545 69.7256 264.673C70.2134 264.801 70.7216 264.832 71.2212 264.763C71.7208 264.695 72.202 264.528 72.6374 264.274C74.839 262.989 77.0354 261.729 79.2319 260.516C79.9769 260.103 80.5635 259.454 80.8994 258.672C81.2353 257.889 81.3014 257.017 81.0874 256.192C80.8734 255.368 80.3913 254.638 79.7171 254.118C79.0429 253.597 78.2148 253.316 77.3631 253.317ZM429.22 249.4C428.624 249.4 428.036 249.539 427.502 249.806C426.969 250.072 426.505 250.459 426.148 250.936C425.79 251.413 425.548 251.967 425.442 252.553C425.335 253.14 425.366 253.743 425.533 254.316L435.026 286.766L402.355 290.673C400.251 290.924 398.746 292.833 398.996 294.938C399.247 297.042 401.111 298.563 403.266 298.296L440.443 293.852C440.998 293.788 441.532 293.603 442.008 293.31C442.484 293.017 442.891 292.624 443.199 292.158C443.506 291.691 443.708 291.163 443.79 290.61C443.873 290.057 443.833 289.493 443.674 288.958L432.901 252.155C432.668 251.36 432.183 250.661 431.519 250.165C430.855 249.668 430.049 249.4 429.22 249.4Z" fill="#D7D7D7"/>
</svg>
