<svg width="19" height="19" viewBox="0 0 19 19" fill="none" xmlns="http://www.w3.org/2000/svg">
<path fill-rule="evenodd" clip-rule="evenodd" d="M6.98054 14.6986C7.21239 14.4667 7.58836 14.4667 7.82022 14.6986L9.50077 16.3791L11.1813 14.6986C11.4132 14.4667 11.7891 14.4667 12.021 14.6986C12.2529 14.9304 12.2529 15.3064 12.021 15.5382L9.92061 17.6386C9.68875 17.8705 9.31279 17.8705 9.08093 17.6386L6.98054 15.5382C6.74868 15.3064 6.74868 14.9304 6.98054 14.6986Z" fill="white"/>
<path fill-rule="evenodd" clip-rule="evenodd" d="M9.5 11.2812C9.82793 11.2812 10.0938 11.5471 10.0938 11.875V17.2188C10.0938 17.5467 9.82793 17.8125 9.5 17.8125C9.17207 17.8125 8.90625 17.5467 8.90625 17.2188V11.875C8.90625 11.5471 9.17207 11.2812 9.5 11.2812Z" fill="white"/>
<path fill-rule="evenodd" clip-rule="evenodd" d="M9.08093 1.3614C9.31279 1.12953 9.68875 1.12953 9.92061 1.3614L12.021 3.46179C12.2529 3.69367 12.2529 4.06961 12.021 4.30149C11.7891 4.53336 11.4132 4.53336 11.1813 4.30149L9.50077 2.62094L7.82022 4.30149C7.58836 4.53336 7.21239 4.53336 6.98054 4.30149C6.74868 4.06961 6.74868 3.69367 6.98054 3.46179L9.08093 1.3614Z" fill="white"/>
<path fill-rule="evenodd" clip-rule="evenodd" d="M9.5 1.1875C9.82793 1.1875 10.0938 1.45333 10.0938 1.78125V7.125C10.0938 7.45293 9.82793 7.71875 9.5 7.71875C9.17207 7.71875 8.90625 7.45293 8.90625 7.125V1.78125C8.90625 1.45333 9.17207 1.1875 9.5 1.1875Z" fill="white"/>
<path fill-rule="evenodd" clip-rule="evenodd" d="M4.30149 6.9798C4.53336 7.21166 4.53336 7.58762 4.30149 7.81948L2.62094 9.50003L4.30149 11.1806C4.53336 11.4124 4.53336 11.7884 4.30149 12.0203C4.06961 12.2522 3.69367 12.2522 3.46179 12.0203L1.3614 9.91987C1.12953 9.68802 1.12953 9.31205 1.3614 9.08019L3.46179 6.9798C3.69367 6.74794 4.06961 6.74794 4.30149 6.9798Z" fill="white"/>
<path fill-rule="evenodd" clip-rule="evenodd" d="M1.1875 9.5C1.1875 9.17207 1.45333 8.90625 1.78125 8.90625H7.125C7.45293 8.90625 7.71875 9.17207 7.71875 9.5C7.71875 9.82793 7.45293 10.0938 7.125 10.0938H1.78125C1.45333 10.0938 1.1875 9.82793 1.1875 9.5Z" fill="white"/>
<path fill-rule="evenodd" clip-rule="evenodd" d="M14.6993 6.9798C14.9311 6.74794 15.3071 6.74794 15.539 6.9798L17.6394 9.08019C17.8712 9.31205 17.8712 9.68802 17.6394 9.91987L15.539 12.0203C15.3071 12.2522 14.9311 12.2522 14.6993 12.0203C14.4674 11.7884 14.4674 11.4124 14.6993 11.1806L16.3798 9.50003L14.6993 7.81948C14.4674 7.58762 14.4674 7.21166 14.6993 6.9798Z" fill="white"/>
<path fill-rule="evenodd" clip-rule="evenodd" d="M11.2812 9.5C11.2812 9.17207 11.5471 8.90625 11.875 8.90625H17.2188C17.5467 8.90625 17.8125 9.17207 17.8125 9.5C17.8125 9.82793 17.5467 10.0938 17.2188 10.0938H11.875C11.5471 10.0938 11.2812 9.82793 11.2812 9.5Z" fill="white"/>
</svg>
