<svg width="19" height="19" viewBox="0 0 19 19" fill="none" xmlns="http://www.w3.org/2000/svg">
<path d="M12.5393 17.6145H6.45935C5.85105 17.6057 5.26848 17.3677 4.82815 16.9479C4.38782 16.5281 4.12218 15.9576 4.08435 15.3504L3.36393 4.39371C3.36024 4.31427 3.37233 4.23489 3.39951 4.16015C3.42668 4.08541 3.46841 4.01681 3.52226 3.95829C3.57775 3.89765 3.64492 3.84886 3.71975 3.81485C3.79458 3.78084 3.87551 3.76231 3.95768 3.76038H15.041C15.1224 3.7602 15.203 3.77676 15.2778 3.80904C15.3525 3.84133 15.4198 3.88864 15.4755 3.94804C15.5312 4.00743 15.5741 4.07765 15.6015 4.15432C15.6289 4.23099 15.6402 4.31247 15.6348 4.39371L14.946 15.3504C14.9078 15.963 14.6377 16.538 14.1906 16.9586C13.7436 17.3792 13.1531 17.6137 12.5393 17.6145ZM4.62268 4.94788L5.23226 15.2791C5.2524 15.5907 5.39052 15.8828 5.6185 16.0961C5.84648 16.3093 6.14717 16.4277 6.45935 16.427H12.5393C12.851 16.4258 13.1506 16.3068 13.3782 16.0939C13.6058 15.881 13.7445 15.59 13.7664 15.2791L14.4077 4.98746L4.62268 4.94788Z" fill="white"/>
<path d="M16.625 4.94788H2.375C2.21753 4.94788 2.06651 4.88532 1.95516 4.77397C1.84381 4.66262 1.78125 4.5116 1.78125 4.35413C1.78125 4.19665 1.84381 4.04563 1.95516 3.93428C2.06651 3.82293 2.21753 3.76038 2.375 3.76038H16.625C16.7825 3.76038 16.9335 3.82293 17.0448 3.93428C17.1562 4.04563 17.2188 4.19665 17.2188 4.35413C17.2188 4.5116 17.1562 4.66262 17.0448 4.77397C16.9335 4.88532 16.7825 4.94788 16.625 4.94788Z" fill="white"/>
<path d="M11.875 4.94788H7.125C6.96817 4.94583 6.81833 4.88261 6.70742 4.7717C6.59651 4.6608 6.5333 4.51096 6.53125 4.35413V2.92913C6.54129 2.52286 6.70715 2.136 6.99451 1.84864C7.28188 1.56128 7.66873 1.39541 8.075 1.38538H10.925C11.338 1.3957 11.7307 1.56707 12.0191 1.86289C12.3075 2.15871 12.4689 2.55555 12.4688 2.96871V4.35413C12.4667 4.51096 12.4035 4.6608 12.2926 4.7717C12.1817 4.88261 12.0318 4.94583 11.875 4.94788ZM7.71875 3.76038H11.2812V2.96871C11.2812 2.87423 11.2437 2.78361 11.1769 2.7168C11.1101 2.64999 11.0195 2.61246 10.925 2.61246H8.075C7.98052 2.61246 7.8899 2.64999 7.82309 2.7168C7.75628 2.78361 7.71875 2.87423 7.71875 2.96871V3.76038Z" fill="white"/>
<path d="M11.875 14.448C11.7182 14.4459 11.5683 14.3827 11.4574 14.2718C11.3465 14.1609 11.2833 14.011 11.2812 13.8542V7.52087C11.2812 7.3634 11.3438 7.21238 11.4552 7.10103C11.5665 6.98968 11.7175 6.92712 11.875 6.92712C12.0325 6.92712 12.1835 6.98968 12.2948 7.10103C12.4062 7.21238 12.4688 7.3634 12.4688 7.52087V13.8542C12.4667 14.011 12.4035 14.1609 12.2926 14.2718C12.1817 14.3827 12.0318 14.4459 11.875 14.448Z" fill="white"/>
<path d="M7.125 14.448C6.96817 14.4459 6.81833 14.3827 6.70742 14.2718C6.59651 14.1609 6.5333 14.011 6.53125 13.8542V7.52087C6.53125 7.3634 6.59381 7.21238 6.70516 7.10103C6.81651 6.98968 6.96753 6.92712 7.125 6.92712C7.28247 6.92712 7.43349 6.98968 7.54484 7.10103C7.65619 7.21238 7.71875 7.3634 7.71875 7.52087V13.8542C7.7167 14.011 7.65349 14.1609 7.54258 14.2718C7.43167 14.3827 7.28183 14.4459 7.125 14.448Z" fill="white"/>
<path d="M9.5 14.448C9.34317 14.4459 9.19333 14.3827 9.08242 14.2718C8.97151 14.1609 8.9083 14.011 8.90625 13.8542V7.52087C8.90625 7.3634 8.96881 7.21238 9.08016 7.10103C9.19151 6.98968 9.34253 6.92712 9.5 6.92712C9.65747 6.92712 9.80849 6.98968 9.91984 7.10103C10.0312 7.21238 10.0938 7.3634 10.0938 7.52087V13.8542C10.0917 14.011 10.0285 14.1609 9.91758 14.2718C9.80667 14.3827 9.65683 14.4459 9.5 14.448Z" fill="white"/>
</svg>
