<svg width="19" height="19" viewBox="0 0 19 19" fill="none" xmlns="http://www.w3.org/2000/svg">
<path d="M16.625 14.25V11.875C16.625 11.7175 16.5624 11.5665 16.4511 11.4552C16.3397 11.3438 16.1887 11.2812 16.0312 11.2812C15.8738 11.2812 15.7228 11.3438 15.6114 11.4552C15.5001 11.5665 15.4375 11.7175 15.4375 11.875V14.25C15.4375 14.4075 15.3749 14.5585 15.2636 14.6698C15.1522 14.7812 15.0012 14.8438 14.8438 14.8438H4.15625C3.99878 14.8438 3.84776 14.7812 3.73641 14.6698C3.62506 14.5585 3.5625 14.4075 3.5625 14.25V11.875C3.5625 11.7175 3.49994 11.5665 3.38859 11.4552C3.27724 11.3438 3.12622 11.2812 2.96875 11.2812C2.81128 11.2812 2.66026 11.3438 2.54891 11.4552C2.43756 11.5665 2.375 11.7175 2.375 11.875V14.25C2.375 14.7224 2.56267 15.1755 2.89672 15.5095C3.23077 15.8436 3.68383 16.0312 4.15625 16.0312H14.8438C15.3162 16.0312 15.7692 15.8436 16.1033 15.5095C16.4373 15.1755 16.625 14.7224 16.625 14.25ZM12.8369 11.1506L9.86813 13.5256C9.7633 13.6085 9.6336 13.6535 9.5 13.6535C9.3664 13.6535 9.2367 13.6085 9.13188 13.5256L6.16313 11.1506C6.05495 11.0485 5.98905 10.9095 5.97845 10.7612C5.96785 10.6128 6.01333 10.4658 6.10589 10.3494C6.19845 10.2329 6.33134 10.1555 6.47828 10.1323C6.62522 10.1092 6.7755 10.142 6.89937 10.2244L8.90625 11.8275V3.5625C8.90625 3.40503 8.96881 3.25401 9.08016 3.14266C9.1915 3.03131 9.34253 2.96875 9.5 2.96875C9.65747 2.96875 9.8085 3.03131 9.91985 3.14266C10.0312 3.25401 10.0938 3.40503 10.0938 3.5625V11.8275L12.1006 10.2244C12.1604 10.1679 12.2313 10.1245 12.3087 10.0969C12.3862 10.0693 12.4685 10.0581 12.5505 10.0639C12.6325 10.0698 12.7124 10.0926 12.7851 10.1309C12.8579 10.1693 12.9218 10.2223 12.973 10.2867C13.0242 10.3511 13.0614 10.4253 13.0823 10.5048C13.1033 10.5844 13.1075 10.6673 13.0947 10.7486C13.0819 10.8298 13.0524 10.9074 13.008 10.9767C12.9636 11.0459 12.9053 11.1051 12.8369 11.1506Z" fill="white"/>
</svg>
