<svg width="19" height="19" viewBox="0 0 19 19" fill="none" xmlns="http://www.w3.org/2000/svg">
<path fill-rule="evenodd" clip-rule="evenodd" d="M14.2507 9.50004C15.9995 9.50004 17.4173 10.9178 17.4173 12.6667C17.4173 14.4156 15.9995 15.8334 14.2507 15.8334C12.7751 15.8334 11.5353 14.8242 11.1837 13.4584H2.37565C1.93843 13.4584 1.58398 13.1039 1.58398 12.6667C1.58398 12.2295 1.93843 11.875 2.37565 11.875H11.1837C11.5353 10.5093 12.7751 9.50004 14.2507 9.50004ZM12.6673 12.6667C12.6673 11.7923 13.3762 11.0834 14.2507 11.0834C15.1251 11.0834 15.834 11.7923 15.834 12.6667C15.834 13.5412 15.1251 14.25 14.2507 14.25C13.3762 14.25 12.6673 13.5412 12.6673 12.6667ZM1.58398 6.33337C1.58398 8.08224 3.00175 9.50004 4.75065 9.50004C6.22619 9.50004 7.46602 8.49082 7.81755 7.12504H16.6257C17.0629 7.12504 17.4173 6.77061 17.4173 6.33337C17.4173 5.89614 17.0629 5.54171 16.6257 5.54171H7.81755C7.46602 4.17592 6.22619 3.16671 4.75065 3.16671C3.00175 3.16671 1.58398 4.5845 1.58398 6.33337ZM6.33398 6.33337C6.33398 7.20785 5.6251 7.91671 4.75065 7.91671C3.8762 7.91671 3.16732 7.20785 3.16732 6.33337C3.16732 5.4589 3.8762 4.75004 4.75065 4.75004C5.6251 4.75004 6.33398 5.4589 6.33398 6.33337Z" fill="#999999"/>
</svg>
