<svg xmlns="http://www.w3.org/2000/svg" version="1.1" xmlns:xlink="http://www.w3.org/1999/xlink" xmlns:svgjs="http://svgjs.com/svgjs" width="512" height="512" x="0" y="0" viewBox="0 0 511.993 511" style="enable-background:new 0 0 512 512" xml:space="preserve" class=""><g><path fill="#f0f7f9" d="M17.066 247.95h119.47c4.71 0 8.53 3.82 8.53 8.534v68.266a8.533 8.533 0 0 1-8.53 8.535H17.065a8.533 8.533 0 0 1-8.53-8.535v-68.266a8.533 8.533 0 0 1 8.53-8.535zm0 0" data-original="#e8edfc" class=""></path><path fill="#f0f7f9" d="M213.93 247.95h-60.328a8.534 8.534 0 0 0-8.536 8.534v68.266a8.534 8.534 0 0 0 8.536 8.535h119.464a8.534 8.534 0 0 0 8.536-8.535v-56.574zm0 0" data-original="#e8edfc" class=""></path><path fill="#85a3ad" d="M418.133 256.484v68.266a8.558 8.558 0 0 1-8.531 8.535h-119.47a8.558 8.558 0 0 1-8.53-8.535v-56.574l94.972-20.227h33.028a8.558 8.558 0 0 1 8.53 8.535zm0 0" data-original="#cad9fc" class=""></path><path fill="#f0f7f9" d="M392.535 256.484v68.266a8.564 8.564 0 0 1-8.535 8.535h-93.867a8.558 8.558 0 0 1-8.531-8.535v-56.574l94.972-20.227H384a8.564 8.564 0 0 1 8.535 8.535zM85.332 333.285h119.469c4.71 0 8.531 3.82 8.531 8.531v68.266a8.533 8.533 0 0 1-8.531 8.535H85.332a8.533 8.533 0 0 1-8.531-8.535v-68.266c0-4.71 3.82-8.53 8.531-8.53zm0 0" data-original="#e8edfc" class=""></path><path fill="#f0f7f9" d="M221.867 333.285h119.465a8.533 8.533 0 0 1 8.535 8.531v68.266a8.534 8.534 0 0 1-8.535 8.535H221.867a8.534 8.534 0 0 1-8.535-8.535v-68.266c0-4.71 3.82-8.53 8.535-8.53zm0 0" data-original="#e8edfc" class=""></path><path fill="#85a3ad" d="M358.398 333.285h119.47c4.71 0 8.53 3.82 8.53 8.531v68.266a8.533 8.533 0 0 1-8.53 8.535h-119.47a8.533 8.533 0 0 1-8.53-8.535v-68.266c0-4.71 3.82-8.53 8.53-8.53zm0 0" data-original="#cad9fc" class=""></path><path fill="#f0f7f9" d="M358.398 333.285h93.868a8.533 8.533 0 0 1 8.535 8.531v68.266a8.534 8.534 0 0 1-8.535 8.535h-93.868a8.533 8.533 0 0 1-8.53-8.535v-68.266c0-4.71 3.82-8.53 8.53-8.53zM17.066 418.617h119.47c4.71 0 8.53 3.82 8.53 8.531v68.27c0 4.71-3.82 8.531-8.53 8.531H17.065a8.532 8.532 0 0 1-8.53-8.531v-68.27c0-4.71 3.82-8.53 8.53-8.53zM153.602 418.617h119.464a8.533 8.533 0 0 1 8.536 8.531v68.27c0 4.71-3.82 8.531-8.536 8.531H153.602a8.533 8.533 0 0 1-8.536-8.531v-68.27c0-4.71 3.82-8.53 8.536-8.53zm0 0" data-original="#e8edfc" class=""></path><path fill="#85a3ad" d="M290.133 418.617h119.469c4.71 0 8.53 3.82 8.53 8.531v68.27c0 4.71-3.82 8.531-8.53 8.531h-119.47a8.532 8.532 0 0 1-8.53-8.531v-68.27c0-4.71 3.82-8.53 8.53-8.53zm0 0" data-original="#cad9fc" class=""></path><path fill="#f0f7f9" d="M290.133 418.617H384c4.71 0 8.535 3.82 8.535 8.531v68.27c0 4.71-3.824 8.531-8.535 8.531h-93.867a8.532 8.532 0 0 1-8.531-8.531v-68.27c0-4.71 3.82-8.53 8.53-8.53zm0 0" data-original="#e8edfc" class=""></path><path fill="#85a3ad" d="m386.219 245.902-27.735 5.887-141.566 30.125a11.497 11.497 0 0 1-11.305-4.39 11.493 11.493 0 0 1-1.07-12.079l73.559-136.96 8.363-15.532a10.882 10.882 0 0 1 8.937-5.46 10.902 10.902 0 0 1 9.41 4.605l87.38 116.48a10.85 10.85 0 0 1 1.78 10.309 10.841 10.841 0 0 1-7.753 7.015zm0 0" data-original="#cad9fc" class=""></path><path fill="#f0f7f9" d="m358.484 251.79-141.566 30.124a11.497 11.497 0 0 1-11.305-4.39 11.493 11.493 0 0 1-1.07-12.079l73.559-136.96 81.492 108.542a10.95 10.95 0 0 1-1.11 14.762zM407.84 60.125l63.582-47.695c7.539-5.657 18.238-4.13 23.894 3.41l4.739 6.32c5.656 7.54 4.129 18.238-3.41 23.895L433.063 93.75c-3.77 2.828-9.118 2.063-11.946-1.707L406.133 72.07c-2.828-3.77-2.063-9.117 1.707-11.945zm0 0" data-original="#e8edfc" class=""></path><g fill="#fffdfd"><path d="M375.465 410.082a8.533 8.533 0 0 1-8.531 8.535H384a8.564 8.564 0 0 1-8.535-8.535zM307.2 427.148a8.558 8.558 0 0 1 8.534-8.53h-17.066c4.71 0 8.531 3.82 8.531 8.53zM238.934 341.816c0-4.71 3.82-8.53 8.53-8.53h-17.066a8.533 8.533 0 0 1 8.536 8.53zM307.2 495.418c0 4.71-3.821 8.531-8.532 8.531h17.066a8.558 8.558 0 0 1-8.535-8.531zM170.668 427.148c0-4.71 3.82-8.53 8.531-8.53h-17.066a8.533 8.533 0 0 1 8.535 8.53zM238.934 410.082a8.534 8.534 0 0 1-8.536 8.535h17.067a8.533 8.533 0 0 1-8.531-8.535zM170.668 324.75a8.564 8.564 0 0 1-8.535 8.535h17.066a8.533 8.533 0 0 1-8.531-8.535zM307.2 324.75a8.533 8.533 0 0 1-8.532 8.535h17.066a8.564 8.564 0 0 1-8.535-8.535zM102.398 410.082v-68.266c0-4.71 3.82-8.53 8.536-8.53H85.332a8.532 8.532 0 0 0-8.531 8.53v68.266a8.533 8.533 0 0 0 8.531 8.535h25.602a8.534 8.534 0 0 1-8.536-8.535zM375.465 341.816a8.558 8.558 0 0 1 8.535-8.53h-17.066c4.71 0 8.53 3.82 8.53 8.53zM17.066 503.95h25.602a8.533 8.533 0 0 1-8.535-8.532v-68.27c0-4.71 3.82-8.53 8.535-8.53H17.066a8.532 8.532 0 0 0-8.53 8.53v68.27c0 4.71 3.82 8.531 8.53 8.531zM17.066 333.285h25.602a8.564 8.564 0 0 1-8.535-8.535v-68.266a8.564 8.564 0 0 1 8.535-8.535H17.066a8.558 8.558 0 0 0-8.53 8.535v68.266a8.558 8.558 0 0 0 8.53 8.535zM170.668 495.418c0 4.71-3.82 8.531-8.535 8.531h17.066a8.532 8.532 0 0 1-8.531-8.531zm0 0" fill="#f0f7f9" data-original="#fffdfd" class=""></path></g><path fill="#285b6c" d="M145.066 341.816H8.536A8.533 8.533 0 0 1 0 333.286v-85.337c0-4.71 3.82-8.531 8.535-8.531h136.531a8.533 8.533 0 0 1 8.536 8.531v85.336c0 4.711-3.82 8.531-8.536 8.531zm-128-17.066h119.47v-68.266H17.065zm0 0" data-original="#428dff" class=""></path><path fill="#285b6c" d="M281.602 341.816H145.066a8.532 8.532 0 0 1-8.53-8.53v-85.337c0-4.71 3.82-8.531 8.53-8.531h68.864a8.533 8.533 0 1 1 0 17.066h-60.328v68.266h119.464v-56.574a8.534 8.534 0 1 1 17.067 0v65.11c0 4.71-3.82 8.53-8.531 8.53zm0 0" data-original="#428dff" class=""></path><path fill="#285b6c" d="M418.133 341.816H281.602a8.533 8.533 0 0 1-8.536-8.53v-65.11a8.534 8.534 0 1 1 17.067 0v56.574h119.469v-68.266h-33.028a8.533 8.533 0 0 1-8.531-8.535c0-4.71 3.82-8.531 8.531-8.531h41.559a8.533 8.533 0 0 1 8.535 8.531v85.336c0 4.711-3.82 8.531-8.535 8.531zM213.332 427.148H76.801a8.533 8.533 0 0 1-8.535-8.53v-85.333a8.534 8.534 0 0 1 8.535-8.535h136.531a8.534 8.534 0 0 1 8.535 8.535v85.332c0 4.711-3.82 8.531-8.535 8.531zm-128-17.066h119.469v-68.266H85.332zm0 0" data-original="#428dff" class=""></path><path fill="#285b6c" d="M349.867 427.148H213.332a8.532 8.532 0 0 1-8.531-8.53v-85.333a8.533 8.533 0 0 1 8.531-8.535h136.535c4.711 0 8.531 3.82 8.531 8.535v85.332c0 4.711-3.82 8.531-8.53 8.531zm-128-17.066h119.465v-68.266H221.867zm0 0" data-original="#428dff" class=""></path><path fill="#285b6c" d="M486.398 427.148h-136.53a8.533 8.533 0 0 1-8.536-8.53v-85.333a8.534 8.534 0 0 1 8.535-8.535h136.531a8.534 8.534 0 0 1 8.536 8.535v85.332c0 4.711-3.82 8.531-8.536 8.531zm-128-17.066h119.47v-68.266h-119.47zm0 0" data-original="#428dff" class=""></path><path fill="#f0f7f9" d="M145.066 512.484H8.536v-17.066h136.53zm0 0" data-original="#ffffff" class=""></path><path fill="#285b6c" d="M102.398 503.95a8.564 8.564 0 0 0 8.536 8.534h34.132v-17.066h-34.132a8.558 8.558 0 0 0-8.536 8.531zM8.535 495.418v17.066h34.133c4.71 0 8.531-3.82 8.531-8.535 0-4.71-3.82-8.531-8.531-8.531zM76.8 512.484a8.988 8.988 0 0 0 6.06-2.476l1.023-1.278c.324-.476.582-.992.77-1.539.245-.48.417-1 .511-1.535.094-.562.152-1.133.168-1.707a8.966 8.966 0 0 0-2.473-6.058 8.416 8.416 0 0 0-7.726-2.41 8.419 8.419 0 0 0-6.184 5.226 8.581 8.581 0 0 0-.683 3.242 8.448 8.448 0 0 0 2.476 6.059 8.448 8.448 0 0 0 6.059 2.476zm0 0" data-original="#428dff" class=""></path><path fill="#285b6c" d="M145.066 512.484a8.533 8.533 0 0 1-8.53-8.535v-76.8H17.065v76.8a8.533 8.533 0 1 1-17.066 0v-85.332a8.534 8.534 0 0 1 8.535-8.535h136.531a8.534 8.534 0 0 1 8.536 8.535v85.332a8.534 8.534 0 0 1-8.536 8.535zm0 0" data-original="#428dff" class=""></path><path fill="#285b6c" d="M281.602 512.484H145.066a8.533 8.533 0 0 1-8.53-8.535v-85.332a8.533 8.533 0 0 1 8.53-8.535h136.536c4.71 0 8.53 3.82 8.53 8.535v85.332a8.533 8.533 0 0 1-8.53 8.535zm-128-17.066h119.464v-68.27H153.602zm0 0" data-original="#428dff" class=""></path><path fill="#285b6c" d="M418.133 512.484H281.602a8.534 8.534 0 0 1-8.536-8.535v-85.332a8.534 8.534 0 0 1 8.536-8.535h136.53a8.534 8.534 0 0 1 8.536 8.535v85.332a8.534 8.534 0 0 1-8.535 8.535zm-128-17.066h119.469v-68.27h-119.47zM214.555 290.695a20.055 20.055 0 0 1-17.54-29.289l81.938-152.465a18.932 18.932 0 0 1 15.305-9.937 19.789 19.789 0 0 1 17.367 7.98l87.36 116.454a19.813 19.813 0 0 1 2.8 18.906 18.911 18.911 0 0 1-13.824 11.91l-169.297 36.004c-1.351.289-2.73.437-4.11.437zm81.168-174.675-.172.007a1.78 1.78 0 0 0-1.555 1l-81.941 152.461a2.713 2.713 0 0 0 .351 2.922 2.773 2.773 0 0 0 2.711 1.156l169.297-36.003a1.797 1.797 0 0 0 1.395-1.211c.32-.914.14-1.926-.473-2.672L297.98 117.23a2.809 2.809 0 0 0-2.257-1.207zm0 0" data-original="#428dff" class=""></path><path fill="#285b6c" d="M306.457 210.395a8.533 8.533 0 0 1-5.129-15.36l66.66-50.004a12.46 12.46 0 0 0 4.969-10.68l-.852-15.367a29.498 29.498 0 0 1 11.77-25.28l24.625-18.47c3.77-2.828 9.117-2.062 11.945 1.707a8.533 8.533 0 0 1-1.707 11.95l-24.625 18.472a12.46 12.46 0 0 0-4.968 10.68l.851 15.367a29.48 29.48 0 0 1-11.77 25.278l-66.66 50.007a8.48 8.48 0 0 1-5.109 1.7zm0 0" data-original="#428dff" class=""></path><path fill="#285b6c" d="M426.234 107.406a8.512 8.512 0 0 1-6.824-3.414l-25.223-33.62c-2.828-3.77-2.062-9.118 1.708-11.946l70.398-52.813c11.312-8.472 27.348-6.187 35.84 5.106l4.742 6.332c8.477 11.304 6.187 27.344-5.113 35.828l-5.121-6.828 5.12 6.828-70.406 52.82a8.531 8.531 0 0 1-5.12 1.707zM412.957 66.95l14.98 19.977L491.52 39.23a8.535 8.535 0 0 0 1.707-11.94l-4.743-6.333c-2.828-3.766-8.18-4.527-11.945-1.7zM34.133 290.617H8.535a8.534 8.534 0 1 1 0-17.066h25.598a8.533 8.533 0 1 1 0 17.066zM102.398 290.617H68.266a8.533 8.533 0 0 1-8.532-8.535c0-4.71 3.82-8.531 8.532-8.531h34.132a8.533 8.533 0 1 1 0 17.066zm0 0" data-original="#428dff" class=""></path></g></svg>