<svg width="32" height="32" viewBox="0 0 32 32" fill="none" xmlns="http://www.w3.org/2000/svg">
<path d="M25.8561 31.3561L24.5684 32H2.95069C2.70175 32 2.5 31.7982 2.5 31.5493V4L5.14388 2.64387L6.5 0H24.5684L25.8561 0.643875V31.3561Z" fill="#F2FBFF"/>
<path d="M2.5 4H6.04931C6.29825 4 6.5 3.79819 6.5 3.54931V0L2.5 4Z" fill="#DFF6FD"/>
<path d="M29.4356 13.3561L29.5 16.004C29.5 17.1063 28.6064 18 27.504 18H26.5L25.875 15.8626L26.5 14L29.4356 13.3561Z" fill="#5899F9"/>
<path d="M24.5684 0V32H26.0492C26.2982 32 26.4999 31.7982 26.4999 31.5493V0.450687C26.5 0.201812 26.2982 0 26.0493 0L24.5684 0Z" fill="#DFF6FD"/>
<path d="M28.8561 13.4245C28.8561 13.4245 28.6046 14 27.5 14H8.95069C8.70175 14 8.5 13.7982 8.5 13.5493V4.45069C8.5 4.20175 8.70181 4 8.95069 4H25.3459L26.8601 4.01025C27.9625 4.01025 28.8561 4.89362 28.8561 5.996V13.4245Z" fill="#7BB1FF"/>
<path d="M27.5039 4H25.5723C26.6746 4 27.5683 4.89362 27.5683 5.996V14.0017C28.6411 14.0379 29.4999 14.9184 29.4999 16V5.996C29.4999 4.89362 28.6063 4 27.5039 4Z" fill="#69A2FD"/>
<path d="M22.5005 23.4935H6.50045C6.23377 23.4935 6.01758 23.7097 6.01758 23.9764C6.01758 24.2431 6.23377 24.4593 6.50045 24.4593H22.5005C22.7671 24.4593 22.9833 24.2431 22.9833 23.9764C22.9833 23.7098 22.7671 23.4935 22.5005 23.4935Z" fill="#BFBFBF"/>
<path d="M22.5005 25.4937H6.50045C6.23377 25.4937 6.01758 25.7098 6.01758 25.9765C6.01758 26.2432 6.23377 26.4594 6.50045 26.4594H22.5005C22.7671 26.4594 22.9833 26.2432 22.9833 25.9765C22.9833 25.7098 22.7671 25.4937 22.5005 25.4937Z" fill="#BFBFBF"/>
<path d="M15.5005 27.4935H6.50045C6.23377 27.4935 6.01758 27.7097 6.01758 27.9764C6.01758 28.2431 6.23377 28.4593 6.50045 28.4593H15.5005C15.7671 28.4593 15.9833 28.2431 15.9833 27.9764C15.9833 27.7098 15.7671 27.4935 15.5005 27.4935Z" fill="#BFBFBF"/>
<path d="M15.5005 18.4594H22.5005C22.7671 18.4594 22.9833 18.2432 22.9833 17.9765C22.9833 17.7098 22.7671 17.4937 22.5005 17.4937H15.5005C15.2338 17.4937 15.0176 17.7098 15.0176 17.9765C15.0176 18.2432 15.2338 18.4594 15.5005 18.4594Z" fill="#BFBFBF"/>
<path d="M22.5005 19.4935H15.5005C15.2338 19.4935 15.0176 19.7097 15.0176 19.9764C15.0176 20.2431 15.2338 20.4593 15.5005 20.4593H22.5005C22.7671 20.4593 22.9833 20.2431 22.9833 19.9764C22.9833 19.7098 22.7671 19.4935 22.5005 19.4935Z" fill="#BFBFBF"/>
<path d="M22.5005 21.4937H15.5005C15.2338 21.4937 15.0176 21.7098 15.0176 21.9765C15.0176 22.2432 15.2338 22.4594 15.5005 22.4594H22.5005C22.7671 22.4594 22.9833 22.2432 22.9833 21.9765C22.9833 21.7098 22.7671 21.4937 22.5005 21.4937Z" fill="#BFBFBF"/>
<path d="M8.80616 22.0102C8.90954 22.5713 9.75904 22.6069 9.91172 22.0581L10.6673 19.6168L11.4196 22.0587C11.573 22.6078 12.4222 22.5705 12.5252 22.0096L13.3077 18.0782C13.3597 17.8166 13.1898 17.5623 12.9283 17.5103C12.6668 17.4583 12.4125 17.628 12.3604 17.8897L11.8837 20.2849L11.1288 17.8343C11.0007 17.3616 10.2739 17.406 10.1943 17.8788L9.44947 20.2852L8.97429 17.8828C8.92254 17.6212 8.66854 17.4511 8.40685 17.5028C8.14522 17.5545 7.9751 17.8086 8.02685 18.0702L8.80616 22.0102Z" fill="#BFBFBF"/>
<path d="M24.3697 11.483C23.0005 11.483 21.8867 10.3692 21.8867 9.00003C21.8867 7.6309 23.0005 6.51709 24.3697 6.51709C24.8671 6.51709 25.3473 6.66384 25.7582 6.9414C25.9792 7.09071 26.0373 7.3909 25.888 7.61184C25.7387 7.83284 25.4385 7.89103 25.2176 7.74171C24.9669 7.5724 24.6737 7.4829 24.3697 7.4829C23.5332 7.4829 22.8525 8.16346 22.8525 9.00003C22.8525 9.83653 23.5331 10.5171 24.3697 10.5171C24.6801 10.5171 24.9414 10.4247 25.1462 10.2423C25.186 10.2068 25.2242 10.1673 25.2597 10.1251C25.431 9.92078 25.7357 9.89403 25.94 10.0655C26.1443 10.2368 26.171 10.5415 25.9996 10.7458C25.9343 10.8237 25.8633 10.8969 25.7885 10.9635C25.4069 11.3033 24.9163 11.483 24.3697 11.483Z" fill="#F2FBFF"/>
<path d="M18.7251 11.483C17.356 11.483 16.2422 10.3692 16.2422 9.00003C16.2422 7.6309 17.356 6.51709 18.7251 6.51709C20.0942 6.51709 21.208 7.6309 21.208 9.00003C21.208 10.3691 20.0942 11.483 18.7251 11.483ZM18.7251 7.4829C17.8886 7.4829 17.208 8.16346 17.208 9.00003C17.208 9.83653 17.8886 10.5171 18.7251 10.5171C19.5616 10.5171 20.2422 9.83653 20.2422 9.00003C20.2422 8.16353 19.5616 7.4829 18.7251 7.4829Z" fill="#F2FBFF"/>
<path d="M13.0841 11.483H12.3696C12.1029 11.483 11.8867 11.2668 11.8867 11.0001V7.00009C11.8867 6.7334 12.1029 6.51721 12.3696 6.51721H13.0841C14.4532 6.51721 15.567 7.63102 15.567 9.00015C15.567 10.3691 14.4532 11.483 13.0841 11.483ZM12.8525 10.5172H13.0841C13.9207 10.5172 14.6012 9.83665 14.6012 9.00015C14.6012 8.16359 13.9206 7.48302 13.0841 7.48302H12.8525V10.5172Z" fill="#F2FBFF"/>
</svg>
