<svg xmlns="http://www.w3.org/2000/svg" viewBox="0 0 623.05 191.09"><defs><style>.cls-1{fill:#ed7d30;}.cls-2{fill:#697074;}.cls-3{fill:#6e6e6e;}.cls-4{fill:#fff;}.cls-5{fill:#697075;}</style></defs><g id="Layer_2" data-name="Layer 2"><g id="Layer_1-2" data-name="Layer 1"><path class="cls-1" d="M28.4,130.37c-1.09-2.8-2.13-5.41-3.14-8-3.93-10.24-7.88-20.47-11.77-30.73C13,90.25,12.41,89.76,11,90.45S7.78,91.68,6,92.34C5.1,90,4.13,87.82,3.44,85.56c-.19-.61.33-1.57.76-2.21Q17.1,64.15,30.05,45c1.05-1.57,2.07-3.15,3.19-4.67.32-.42,1-1,1.41-.88,4.35,1,8.68,2.13,13,3.22-.87,2.72-5,6-7.53,6a7.24,7.24,0,0,0-6.7,5.08,7.42,7.42,0,0,0,11.24,8.41c2.36-1.72,4.7-3.49,7-5.3a32,32,0,0,0,8.24-9.69,1.67,1.67,0,0,1,2.25-1c7.88,2,15.78,3.94,23.68,5.85A2.7,2.7,0,0,1,88.06,54c.52,1.57,1.16,3.11,1.83,4.63.41.94.18,1.42-.77,1.75-1.31.46-2.55,1.08-3.87,1.51s-1.58,1-1.06,2.31q7.19,18.49,14.27,37.05c.21.56.39,1.14.66,1.91-2.73,1.06-5.39,2.11-8.06,3.13-4.65,1.79-9.3,3.61-14,5.33-1.26.46-1.43,1-1,2.24,2,4.94,3.83,9.92,5.8,14.86a2.15,2.15,0,0,1-.31,2.57,2.34,2.34,0,0,0-.29.41c-2.7,3.89-2.74,3.91-.82,8.26a3.53,3.53,0,0,0,1.67,1.59A32.1,32.1,0,0,0,86,142.86c2.28.75,2.92,2.49,1.62,4.45-1.59,2.4-3.21,4.79-4.79,7.2-1.3,2,.15,5.3,2.49,5.59s5,.55,7.43.73a2.13,2.13,0,0,1,2.12,1.51c.71,1.92,1.54,3.8,2.17,5.74a3.94,3.94,0,0,1,0,2.23c-1.42,4.66-3,9.28-4.36,13.95a3.52,3.52,0,0,1-2.46,2.57c-3.81,1.39-3.8,1.45-5.27-2.38q-12.19-31.8-24.4-63.59c-.1-.26-.23-.51-.31-.78-.31-1.14-.81-1.67-2.13-1.11s-1.58,1-1.06,2.35q7.35,18.88,14.6,37.82L82.69,188c.16.4.26.83.44,1.41l-4.29,1.7c-1.52-3.94-3-7.7-4.41-11.47q-10.8-28.14-21.58-56.31c-.58-1.52-1.15-1.9-2.76-1.26C43,124.86,35.83,127.53,28.4,130.37Zm12-40.67c2.9-1.1,5.54-2.06,8.13-3.15a1.67,1.67,0,0,0,.58-1.5c-.78-2.31-1.72-4.56-2.56-6.84a1.09,1.09,0,0,0-1.66-.75c-2.33.9-4.66,1.75-7,2.72a1.38,1.38,0,0,0-.63,1.2C38.23,84.09,39.28,86.76,40.39,89.7Zm19,8.17c2.87-1.13,5.5-2.14,8.09-3.24.23-.1.37-.9.24-1.26C66.9,91,66,88.69,65,86.41a1.63,1.63,0,0,0-1.48-.64c-2.36.78-4.67,1.73-7,2.61a1,1,0,0,0-.67,1.54c.92,2.31,1.77,4.65,2.69,7A4.45,4.45,0,0,0,59.4,97.87Zm3.52-17.18c-1.14-2.88-2.17-5.56-3.28-8.21-.08-.18-.8-.26-1.14-.14-2.34.84-4.65,1.76-7,2.63-.86.32-1,.82-.7,1.67.9,2.26,1.69,4.57,2.65,6.8a1.67,1.67,0,0,0,1.45.72c2.41-.81,4.77-1.76,7.13-2.71C62.38,81.31,62.63,80.94,62.92,80.69Zm-8.4,18.6c-.08-.34-.09-.45-.13-.55-.94-2.48-1.86-5-2.89-7.42a1.42,1.42,0,0,0-1.29-.5c-2.4.83-4.78,1.74-7.11,2.75a1.53,1.53,0,0,0-.64,1.35q1.23,3.61,2.73,7.13a1.48,1.48,0,0,0,1.33.61c2.41-.82,4.78-1.76,7.14-2.7A3.33,3.33,0,0,0,54.52,99.29Z"/><path class="cls-2" d="M148.9,144.2,99.57,106.68l3.75-1.59c-.25-.77-.45-1.49-.72-2.18-4.67-12.2-9.33-24.4-14.07-36.56-.58-1.5-.38-2.19,1.17-2.65s3.08-1.18,4.83-1.85c-.45-1.24-.83-2.37-1.25-3.48-.87-2.34-1.83-4.64-2.61-7a3.07,3.07,0,0,0-2.52-2.23c-8.17-2-16.32-4-24.48-6-.47-.11-.93-.28-1.17-.35.72-4.51,1.42-8.87,2.14-13.35A40.41,40.41,0,0,1,85.34,38,41,41,0,0,1,100.8,65a38.1,38.1,0,0,1-1.55,17.7,2.17,2.17,0,0,0,1,2.87c4.5,3.32,8.93,6.76,13.43,10.09,1,.73,1.62,1.46,1.27,2.75-.06.21,0,.45,0,.66-1,3.84,1.34,5.79,4.17,7.45a2.1,2.1,0,0,0,1.38.19c1.47-.28,2.91-.66,4.36-1,2.28-.53,3.69.55,3.64,2.86-.06,2.88-.18,5.76-.22,8.64a3.63,3.63,0,0,0,5.08,3.34c2.31-1.09,4.58-2.25,6.93-3.23a2.52,2.52,0,0,1,2,.22,57.93,57.93,0,0,1,5,3.8,3.86,3.86,0,0,1,1.17,1.88c1.27,4.81,2.43,9.65,3.72,14.45a3,3,0,0,1-.59,3.05C150.71,141.75,149.92,142.89,148.9,144.2Z"/><path class="cls-2" d="M20.5,53.3l-3.34,5a63.52,63.52,0,0,1-6.51-4.61C1.14,45-2.14,34.28,1.37,22,4.81,10.06,13.22,2.85,25.43.52,41.93-2.63,58,9,60.65,25.68a30.48,30.48,0,0,1-15,31.44,9.74,9.74,0,0,0-2,1.63,4.29,4.29,0,0,1-5.15.91,4.17,4.17,0,0,1-1.86-4.9A4.33,4.33,0,0,1,41.07,52a4.39,4.39,0,0,0,2.3-.46A24.54,24.54,0,1,0,6.1,32.76c.83,8.71,5.28,15.24,13,19.53l1.16.63C20.3,53,20.34,53.09,20.5,53.3Z"/><path class="cls-3" d="M146.92,146.89l-2.85,3.76L90.54,110a39.2,39.2,0,0,1,4.74-1.71c.57-.14,1.41.45,2,.89q22.32,16.91,44.61,33.84Z"/><path class="cls-2" d="M36.32,36.44A40.83,40.83,0,0,1,51.86,30a19.56,19.56,0,0,1-2,9.8Z"/><path class="cls-4" d="M40.39,89.7c-1.11-2.94-2.16-5.61-3.1-8.32a1.38,1.38,0,0,1,.63-1.2c2.3-1,4.63-1.82,7-2.72a1.09,1.09,0,0,1,1.66.75c.84,2.28,1.78,4.53,2.56,6.84a1.67,1.67,0,0,1-.58,1.5C45.93,87.64,43.29,88.6,40.39,89.7Z"/><path class="cls-4" d="M59.4,97.87a4.45,4.45,0,0,1-.81-1c-.92-2.31-1.77-4.65-2.69-7a1,1,0,0,1,.67-1.54c2.32-.88,4.63-1.83,7-2.61a1.63,1.63,0,0,1,1.48.64c1,2.28,1.86,4.61,2.69,7,.13.36,0,1.16-.24,1.26C64.9,95.73,62.27,96.74,59.4,97.87Z"/><path class="cls-4" d="M62.92,80.69c-.29.25-.54.62-.88.76-2.36,1-4.72,1.9-7.13,2.71a1.67,1.67,0,0,1-1.45-.72c-1-2.23-1.75-4.54-2.65-6.8-.35-.85-.16-1.35.7-1.67,2.34-.87,4.65-1.79,7-2.63.34-.12,1.06,0,1.14.14C60.75,75.13,61.78,77.81,62.92,80.69Z"/><path class="cls-4" d="M54.52,99.29a3.33,3.33,0,0,1-.86.67c-2.36.94-4.73,1.88-7.14,2.7a1.48,1.48,0,0,1-1.33-.61q-1.5-3.51-2.73-7.13a1.53,1.53,0,0,1,.64-1.35c2.33-1,4.71-1.92,7.11-2.75a1.42,1.42,0,0,1,1.29.5c1,2.45,2,4.94,2.89,7.42C54.43,98.84,54.44,99,54.52,99.29Z"/><path class="cls-1" d="M186.4,68.65h12.43V91h22.93V68.65H234.2v56.52H221.76V102.48H198.83v22.69H186.4Z"/><path class="cls-1" d="M244.38,103.77v-.16c0-12.43,10-22.53,23.5-22.53s23.33,9.93,23.33,22.37v.16c0,12.44-10,22.53-23.49,22.53S244.38,116.21,244.38,103.77Zm34.72,0v-.16c0-6.38-4.6-12-11.38-12-7,0-11.23,5.41-11.23,11.79v.16c0,6.38,4.61,12,11.39,12C274.9,115.56,279.1,110.15,279.1,103.77Z"/><path class="cls-1" d="M299.78,109.91v-28h12.27V106c0,5.82,2.75,8.81,7.43,8.81s7.67-3,7.67-8.81V81.89h12.28v43.28H327.15V119c-2.82,3.64-6.46,7-12.67,7C305.19,126,299.78,119.84,299.78,109.91Z"/><path class="cls-1" d="M347,119.44l5.25-8.08c4.68,3.39,9.61,5.17,13.65,5.17,3.55,0,5.17-1.29,5.17-3.23v-.16c0-2.66-4.2-3.55-9-5-6.05-1.77-12.92-4.6-12.92-13V95c0-8.8,7.11-13.73,15.83-13.73a30,30,0,0,1,16.15,5l-4.69,8.48c-4.27-2.51-8.55-4-11.7-4-3,0-4.52,1.29-4.52,3v.16c0,2.42,4.11,3.55,8.8,5.17,6.05,2,13.08,4.92,13.08,12.84V112c0,9.61-7.19,14-16.56,14A30.35,30.35,0,0,1,347,119.44Z"/><path class="cls-1" d="M388.85,103.77v-.16c0-12.35,8.81-22.53,21.4-22.53,14.46,0,21.08,11.23,21.08,23.5,0,1-.08,2.1-.17,3.23H401.05c1.21,5.57,5.08,8.48,10.58,8.48,4.11,0,7.1-1.29,10.49-4.44l7,6.21c-4,5-9.85,8.08-17.69,8.08C398.46,126.14,388.85,117,388.85,103.77Zm30.53-3.63c-.73-5.49-4-9.21-9.13-9.21s-8.39,3.64-9.37,9.21Z"/><path class="cls-2" d="M441.75,68.65h12.43V93.36l22.94-24.71h15l-23,24,24.07,32.54H478.25l-17.53-24.06-6.54,6.78v17.28H441.75Z"/><path class="cls-2" d="M494.89,103.77v-.16c0-12.35,8.8-22.53,21.4-22.53,14.45,0,21.07,11.23,21.07,23.5,0,1-.08,2.1-.16,3.23H507.08c1.21,5.57,5.09,8.48,10.58,8.48,4.12,0,7.1-1.29,10.5-4.44l7,6.21c-4,5-9.85,8.08-17.68,8.08C504.5,126.14,494.89,117,494.89,103.77Zm30.52-3.63c-.73-5.49-4-9.21-9.12-9.21s-8.4,3.64-9.37,9.21Z"/><path class="cls-2" d="M543.91,135.34l4.11-8.88a11.19,11.19,0,0,0,5.25,1.7c2.1,0,3.23-.65,4.28-2.83L540.6,81.89h13l9.85,29.47,9.45-29.47h12.75L569,126.22c-3.31,8.8-6.86,12.11-14.21,12.11A20.3,20.3,0,0,1,543.91,135.34Z"/><path class="cls-2" d="M587.92,119.44l5.25-8.08c4.68,3.39,9.61,5.17,13.64,5.17,3.56,0,5.17-1.29,5.17-3.23v-.16c0-2.66-4.2-3.55-9-5-6.06-1.77-12.92-4.6-12.92-13V95c0-8.8,7.11-13.73,15.83-13.73a30,30,0,0,1,16.15,5l-4.69,8.48c-4.28-2.51-8.56-4-11.71-4-3,0-4.52,1.29-4.52,3v.16c0,2.42,4.12,3.55,8.8,5.17,6.06,2,13.09,4.92,13.09,12.84V112c0,9.61-7.19,14-16.56,14A30.33,30.33,0,0,1,587.92,119.44Z"/><path class="cls-5" d="M242.42,158.79V145.2h2.64v13.43c0,5,2.67,7.87,7.14,7.87,4.31,0,7.05-2.6,7.05-7.71V145.2h2.63v13.39c0,6.81-3.9,10.35-9.75,10.35S242.42,165.4,242.42,158.79Z"/><path class="cls-5" d="M267.69,151.31h2.57v3a6.54,6.54,0,0,1,5.91-3.37c4.17,0,6.61,2.8,6.61,6.91v10.71h-2.57V158.49c0-3.2-1.73-5.21-4.77-5.21a5.08,5.08,0,0,0-5.18,5.41v9.88h-2.57Z"/><path class="cls-5" d="M288.49,144.2h2.57v24.37h-2.57Z"/><path class="cls-5" d="M296,160V160a9,9,0,0,1,18-.07V160a9,9,0,0,1-9,9A8.84,8.84,0,0,1,296,160Zm15.36,0V160a6.53,6.53,0,0,0-6.41-6.74,6.36,6.36,0,0,0-6.31,6.67V160a6.47,6.47,0,0,0,6.37,6.71A6.37,6.37,0,0,0,311.33,160Z"/><path class="cls-5" d="M317.54,160V160A9,9,0,0,1,333.29,154l-1.7,1.8a6.94,6.94,0,0,0-5.24-2.6,6.37,6.37,0,0,0-6.18,6.67V160a6.45,6.45,0,0,0,6.35,6.71,7.12,7.12,0,0,0,5.27-2.57l1.64,1.54A8.93,8.93,0,0,1,317.54,160Z"/><path class="cls-5" d="M337.67,144.2h2.57V161l9.31-9.72h3.21l-7.25,7.42,7.48,9.84h-3.07l-6.18-8-3.5,3.54v4.5h-2.57Z"/><path class="cls-5" d="M366.08,157v-.07a11.92,11.92,0,1,1,23.84-.07v.07A11.85,11.85,0,0,1,378,169,11.72,11.72,0,0,1,366.08,157Zm21.1,0v-.07c0-5.31-3.87-9.65-9.22-9.65s-9.14,4.27-9.14,9.58v.07c0,5.31,3.87,9.65,9.21,9.65S387.18,162.26,387.18,157Z"/><path class="cls-5" d="M395.06,151.31h2.57v3.48a7.76,7.76,0,0,1,6.61-3.84c4.14,0,8.24,3.27,8.24,8.94V160c0,5.64-4.07,9-8.24,9a7.78,7.78,0,0,1-6.61-3.67v8.65h-2.57ZM409.85,160v-.06c0-4.08-2.81-6.68-6.08-6.68a6.43,6.43,0,0,0-6.24,6.64V160a6.42,6.42,0,0,0,6.24,6.68C407.11,166.64,409.85,164.17,409.85,160Z"/><path class="cls-5" d="M417.22,151.31h2.57v3.48A7.77,7.77,0,0,1,426.4,151c4.14,0,8.25,3.27,8.25,8.94V160c0,5.64-4.07,9-8.25,9a7.81,7.81,0,0,1-6.61-3.67v8.65h-2.57ZM432,160v-.06c0-4.08-2.8-6.68-6.07-6.68a6.43,6.43,0,0,0-6.24,6.64V160a6.42,6.42,0,0,0,6.24,6.68C429.28,166.64,432,164.17,432,160Z"/><path class="cls-5" d="M438.32,160V160a9,9,0,0,1,18-.07V160a9,9,0,0,1-9.05,9A8.84,8.84,0,0,1,438.32,160Zm15.36,0V160a6.53,6.53,0,0,0-6.41-6.74,6.36,6.36,0,0,0-6.31,6.67V160a6.47,6.47,0,0,0,6.38,6.71A6.36,6.36,0,0,0,453.68,160Z"/><path class="cls-5" d="M461,151.31h2.57v4.51c1.27-2.87,3.77-4.94,7-4.81v2.77h-.2c-3.77,0-6.84,2.71-6.84,7.92v6.87H461Z"/><path class="cls-5" d="M475.38,164V153.58H473v-2.27h2.4v-5.2H478v5.2h5.48v2.27H478v10.09c0,2.1,1.17,2.87,2.91,2.87a5.46,5.46,0,0,0,2.5-.6v2.2a6.44,6.44,0,0,1-3.11.73C477.48,168.87,475.38,167.5,475.38,164Z"/><path class="cls-5" d="M487.7,162V151.31h2.57V161.4c0,3.2,1.74,5.2,4.78,5.2a5.1,5.1,0,0,0,5.17-5.4v-9.89h2.54v17.26h-2.54v-3a6.58,6.58,0,0,1-5.91,3.37C490.14,168.94,487.7,166.14,487.7,162Z"/><path class="cls-5" d="M508.53,151.31h2.58v3A6.51,6.51,0,0,1,517,151c4.18,0,6.61,2.8,6.61,6.91v10.71h-2.57V158.49c0-3.2-1.73-5.21-4.77-5.21a5.08,5.08,0,0,0-5.17,5.41v9.88h-2.58Z"/><path class="cls-5" d="M529.17,144.7h2.93v2.84h-2.93Zm.16,6.61h2.57v17.26h-2.57Z"/><path class="cls-5" d="M538.78,164V153.58h-2.4v-2.27h2.4v-5.2h2.57v5.2h5.48v2.27h-5.48v10.09c0,2.1,1.17,2.87,2.91,2.87a5.46,5.46,0,0,0,2.5-.6v2.2a6.44,6.44,0,0,1-3.11.73C540.88,168.87,538.78,167.5,538.78,164Z"/><path class="cls-5" d="M550.36,173.15l.87-2a5.48,5.48,0,0,0,2.71.63c1.53,0,2.5-.79,3.54-3.23l-7.85-17.2h2.84l6.27,14.39,5.55-14.39H567l-7.24,17.83c-1.47,3.57-3.14,4.88-5.74,4.88A8,8,0,0,1,550.36,173.15Z"/></g></g></svg>