<svg xmlns="http://www.w3.org/2000/svg" viewBox="0 0 1604.31 1759.39"><defs><style>.cls-1{fill:#767e82;}.cls-1,.cls-2,.cls-3,.cls-4,.cls-5{fill-rule:evenodd;}.cls-2{fill:#828b8f;}.cls-3{fill:#686f73;}.cls-4{fill:#90989c;}.cls-5{fill:#ec7c30;}</style></defs><g id="Layer_2" data-name="Layer 2"><g id="Layer_1-2" data-name="Layer 1"><path class="cls-1" d="M1326.66,270.27A803.67,803.67,0,0,1,1537.44,557.8l-111.6,43.35a683.77,683.77,0,0,0-174.2-237.56l75-93.32Z"/><path class="cls-2" d="M1026.23,106.2a798.7,798.7,0,0,1,253.82,126.59l-75,93.29A679.78,679.78,0,0,0,997,222.3l29.25-116.1Z"/><path class="cls-3" d="M641.16,212.87a680.43,680.43,0,0,0-303.34,163c-1.72-2.58-3.36-5.21-5-7.88-13.73-23-22-49.13-22-76,0-21,1.46-38.52,5.05-53.84a799.78,799.78,0,0,1,222-119.48q8.13,2.61,16.33,5.94c28.52,11.55,53.89,33.8,72.26,61.54a182.81,182.81,0,0,1,14.7,26.74ZM232.37,500.12A678.57,678.57,0,0,0,119.59,875.81c0,373.8,300.82,677.34,673.61,681.82l38,98.78-.16.07,7.6,20c-12.28.55-24.64.89-37.06.89C358.85,1677.33,0,1318.46,0,875.81A798,798,0,0,1,166.65,386.5c1.83,5.47,3.79,10.93,5.94,16.33a314.55,314.55,0,0,0,19.86,41.07,382,382,0,0,0,37.61,53.49l2.31,2.73Zm891.87,976.53A685.15,685.15,0,0,0,1332,1304.26l50.24,37.71,19.11,14.34-.06.11,26.26,19.87a804.28,804.28,0,0,1-291.27,227.94l1.43-4.65c6.32-20.62,11.08-38.8,11.08-46.84,0-10.3-6.71-31.51-14.71-52v-.19c-3.06-7.88-6.49-16.19-9.86-23.93Zm341.48-445.74a686.07,686.07,0,0,0-18.16-374l111.56-43.34A805.47,805.47,0,0,1,1579.8,1068c-26.09-17.61-55.62-35.12-83.17-50.94l-30.91,13.81Z"/><path class="cls-4" d="M801.55,74.26A802.92,802.92,0,0,1,968.23,91.65L939,207.73a684.07,684.07,0,0,0-135-13.86c-10-37.64-26.6-73.36-49.74-104.63-3.2-4.31-6.5-8.65-9.93-12.95q28.37-2,57.28-2Z"/><path class="cls-5" d="M228.41,779.21c0,6.64,24.16,65.85,28.44,73.94,7.91-4.19,20.36-8.26,29.76-11.93,5.67-2.23,9.63-3.38,15.19-5.67,6.75-2.78,9.48-5,17.6-5.15,5.32,22.78,107.54,281.91,124,325.3,3.28,8.61,5.78,14.64,9,23.26,2.36,6.41,6.14,16.69,9.19,23,15.48-8.18,36.68-14.35,53.08-20.86,18.47-7.36,149.52-59,165-62.56.9,10.89,54.88,146.43,60.11,159.82,31.19,79.92,60,159.89,92.1,239.69l46.34,120.49c7.92,19.73,41.89,103.11,46,120.82,6.58-3.49,37.7-16.42,45.5-17.07-.66-7.91-3.64-13-6.51-20-3-7.5-4.81-13.09-7.84-20.59-37.67-93.24-70.31-187.17-108.06-280.59-10.94-27.07-19.78-52.4-30.63-79.34l-84.74-220.49c-2.86-7.5-6.58-12.89-6.78-21.65,8.65-.72,14.57-5.69,22.75-7.59,3.8,16.3,51.93,137.14,60.67,159.26L900.65,1491c5.42,14.25,9.46,25.79,15.14,39.84l68.85,179.51c2.49,6.89,6.22,13.84,7.8,20.63,13.61-.3,26.31-8,38.48-12.72,27.32-10.65,17-4.71,34.3-56.69,3.22-9.66,33.39-100.8,33.39-108.8,0-8.5-25.13-70-30.32-77.74-27.46,0-58.95-4.52-86.56-8.24-10-1.35-9,.26-12.5-6.46-.18-.35-10-27-10.05-27.6-1-11.84,57.92-80.38,57.92-92.3,0-5.71-3.74-11.35-5.92-16.87-6.42-16.36-19-13.91-45.51-22.7-25.72-8.54-19.29-8.41-30.66-37.61-2.76-7-3.84-11.6-7-17.62l23.29-33.6c6.28-8.35,12.58-13.55,8.32-24.36-13.34-33.73-48.83-131-60-154.37,17.77-4.15,35.85-13.35,53.64-20.31,18.45-7.23,34.82-13.57,53.32-20.6,14.08-5.37,96.85-39.6,109.17-40.63-.28-12.07-29.82-81.76-34.7-94.22l-71.5-186.34c-6.81-17.17-32-77.49-36-94.81,7.11-.6,24.15-8.52,30.59-11.11,9.44-3.8,22.27-9.39,32-11.65-5.23-10.89-9.8-24.51-14.63-36.57-19.4-48.44,1.28-32.18-98.37-57.08-28-7-54.74-13.22-82.29-20.1S785.12,425.46,757.36,419c-3.43,6.47-5.88,12.13-9.83,18.62-11.25,18.54-23.91,36.64-39,52l-14.14,14.29C678.22,518,661.54,532,643.25,543.76c-8.09,5.23-10.94,4.16-16.76,11.69C590.65,601.7,509,581.9,509,515.69c0-35.49,29.64-64.72,66.36-64.46,19,.14,30.55-11.55,43.14-23.21,8.1-7.48,26.32-26.47,28.9-37.47-15.56-.35-115.94-27.89-134.62-32.23L247,752.28c-2,3-18.58,26.82-18.58,26.93Zm316.38-39.05L621,711.45l28.71,76.23L573.5,816.39l-28.71-76.23ZM670,695.72,746.19,667l28.71,76.24L698.66,772,670,695.72Zm-77.4,167.37,76.24-28.72,28.71,76.24-76.24,28.71-28.71-76.23Zm125.17-44.42L794,789.94l28.71,76.24L746.43,894.9l-28.71-76.23Z"/><path class="cls-3" d="M789.59,290.07c0,54.68-12.73,71.27-20.87,106.17,12.39,1,78.06,18.56,94.8,22.75L1005,453.88c28.93,7.27,19.52,1.86,30.27,28.5,3.77,9.32,31,77.08,31.15,86.39l-60.67,22.75c9.83,20.48,61.25,160.78,71.52,186.34,12.65,31.46,23.54,61.33,35.75,93.16,3.54,9.25,34.3,86.47,34.93,94-11.28,2.62-24.29,10.52-36,13.25,3.75,5.61,20.36,17.18,27.1,22.22l172.24,131.08c36.25,27.19,249.91,193,259.47,195.56,40.81-61,40.87-22.34,19.33-108.45l-23.78-93.77c-2.84-9.55-8.75-10.81-20.22-19.59-4.7-3.58-43.45-34.14-45.48-34.14-4.72,0-56.38,24.57-67,29.67-4.55,2.19-6.81,3.46-11.36,5.7l-10.72,6.34c-10.65-7.13-19.87-15.74-30.34-22.75,0-9.62,1.89-10.33,1.89-20.86V984c0-5.36-3.81-5.67-11.36-11.41-15.24-11.58-11.25-5.68-53.57,3.35-22.4,4.79-16.14,5.53-32.3-6.57-9.7-7.25-18.28-15-27.89-21.39l2.54-57.22c-.42-3.37,2.32.13-2.77-5L1111.88,775.42c1.94-8.31,5.22-17.53,7.82-26.3,12-40.43,13-71.78,13-114,0-99.22-52.74-206.53-126.57-271.58-53-46.69-146.28-94.33-216.58-94.33v20.85Z"/><path class="cls-3" d="M363,536.54l32.23-49.3c-8.84-4.66-17.46-8.32-26.2-13.61C308.28,436.79,260.64,367.16,260.64,292c0-57.28,10.33-95.85,41.71-140.3a167.34,167.34,0,0,1,11.79-14.75c5.2-5.94,7.17-9.52,13.29-15.13,3.51-3.22,4.16-3.23,7.42-5.87,9.16-7.36,6.51-7.31,22.08-17.74,67-44.84,140.82-50.8,216.28-20.2,75.63,30.66,133,115.06,133,200.72C706.17,363.85,668.5,426,604.54,469c-19.36,13-8.38,6.83-31.08,6.83-30.28,0-52.27,37.73-30.69,64.83,14.44,18.15,40.91,19.63,56.75,6.73,17.23-14-8.25-.79,30.73-24.24,39.38-23.7,72.32-58.15,96-97.44,56.26-93.58,51.26-220.83-12.16-306.61-18.55-25.09-41.22-49.93-67.4-67.21C589.72,14.36,548.38,0,473,0c-38.14,0-71.23,10.76-99.41,21.93-147.47,58.44-221.81,250.72-137.48,397,16.39,28.45,43.56,62.45,69.23,82.44,13.57,10.56,42.16,31.56,57.7,35.19Z"/><path class="cls-3" d="M1030.36,1008.61c2.35,8.75,53,42.87,59.87,48.2,108.85,85,230.7,176.3,341.52,259.47l62.56,47.41c7.51,5.62,23.66,21.46,32.78,22.2,1.75-6.57,9.34-13.78,13.29-18.92,4.66-6.1,9.54-12,13.25-19-10.37-6.94-20.75-15.56-31.42-23.56L1090,996.38c-10.58-8.31-7.14-7.78-38.47,4.92-6.38,2.59-13.42,5.51-21.13,7.31Z"/><path class="cls-3" d="M531.75,337.48c9,.73,23.35,5.36,32.23,7.57l98.58,24.65c1.41-6.11,9.49-23.55,14.34-42.54,4.3-16.82,4.61-33.54,4.61-54.15-41.72,3.47-96.3,29.54-133.5,52.27-6.72,4.12-12.28,6.24-16.26,12.2Z"/></g></g></svg>