<svg xmlns="http://www.w3.org/2000/svg" version="1.1" xmlns:xlink="http://www.w3.org/1999/xlink" xmlns:svgjs="http://svgjs.com/svgjs" width="512" height="512" x="0" y="0" viewBox="0 0 60 60" style="enable-background:new 0 0 512 512" xml:space="preserve" class=""><g><g fill="none" fill-rule="nonzero"><path fill="#f0f7f9" d="M59 17v40a2.006 2.006 0 0 1-2 2H8.29A7.2 7.2 0 0 1 1 52.22V52a7 7 0 0 1 7-7h2a2.006 2.006 0 0 0 2-2V15h45a2.006 2.006 0 0 1 2 2z" data-original="#e8edfc" class=""></path><path fill="#85a3ad" d="M57 15h-3a2.006 2.006 0 0 1 2 2v40a2.006 2.006 0 0 1-2 2h3a2.006 2.006 0 0 0 2-2V17a2.006 2.006 0 0 0-2-2z" data-original="#cad9fc" class=""></path><path fill="#f0f7f9" d="M12 3v40a2.006 2.006 0 0 1-2 2H8a7 7 0 0 0-7 7V8a7 7 0 0 1 7-7h2a2.006 2.006 0 0 1 2 2z" data-original="#ffffff" class=""></path><path fill="#f0f7f9" d="M10 1H8a7.05 7.05 0 0 0-.669.034A2 2 0 0 1 9 3v40a2.006 2.006 0 0 1-2 2H5a6.966 6.966 0 0 0-4 1.258V52a7 7 0 0 1 7-7h2a2.006 2.006 0 0 0 2-2V3a2.006 2.006 0 0 0-2-2z" data-original="#e8edfc" class=""></path><path fill="#85a3ad" d="m41.01 24.77-.01.02c-.46.454-1.058.74-1.7.81l-3.42.39a1.71 1.71 0 0 1-1.87-1.87l.38-3.4c.07-.657.367-1.269.84-1.73z" data-original="#cad9fc" class=""></path><path fill="#f0f7f9" d="M35.22 18.979 47.532 6.666l5.779 5.779-12.314 12.313z" data-original="#e8edfc" class=""></path><path fill="#85a3ad" d="m47.552 6.703 2.888-2.896 5.786 5.769-2.889 2.896z" data-original="#cad9fc" class=""></path><path fill="#85a3ad" d="m58.39 7.39-2.17 2.17-5.78-5.77v-.01l2.17-2.17a2.034 2.034 0 0 1 2.9 0l2.88 2.88a2.034 2.034 0 0 1 0 2.9z" data-original="#a4c2f7" class=""></path><path fill="#f0f7f9" d="M8.29 59h3A7.2 7.2 0 0 1 4 52.22V8a6.993 6.993 0 0 1 6.331-6.966A1.9 1.9 0 0 0 10 1H8a7 7 0 0 0-7 7v44.22A7.2 7.2 0 0 0 8.29 59z" data-original="#ffffff" class=""></path><path fill="#f0f7f9" d="M0 8h2v8H0z" data-original="#ffffff" class=""></path><g fill="#428dff"><circle cx="1" cy="12" r="1" fill="#285b6c" data-original="#428dff" class=""></circle><path d="M60 5.958a3.033 3.033 0 0 0-.9-2.17L56.212.9a3.033 3.033 0 0 0-2.159-.9h-.01c-.806 0-1.578.325-2.143.9L38.8 14H13V3a3 3 0 0 0-3-3H8a8.009 8.009 0 0 0-8 8 1 1 0 1 0 2 0 6.006 6.006 0 0 1 6-6h2a1 1 0 0 1 1 1v40a1 1 0 0 1-1 1H8a7.976 7.976 0 0 0-6 2.726V16a1 1 0 0 0-2 0v36.251A8.218 8.218 0 0 0 8.29 60H57a3 3 0 0 0 3-3V17a3 3 0 0 0-3-3h-3.8l5.9-5.9a3.015 3.015 0 0 0 .9-2.142zm-9.95 8.368-9.031 9.037-4.376-4.377 10.9-10.9 4.374 4.373-1.81 1.811zM35.78 25a.667.667 0 0 1-.572-.2.691.691 0 0 1-.2-.564l.379-3.4c.016-.071.036-.141.06-.21l3.939 3.939c-.065.014-.124.046-.192.054zM48.953 6.675l1.483-1.482 4.372 4.373-1.482 1.483zM57 16a1 1 0 0 1 1 1v40a1 1 0 0 1-1 1H8.29A6.2 6.2 0 0 1 2 52.22V52a6.006 6.006 0 0 1 6-6h2a3 3 0 0 0 3-3V16h23.8l-2.271 2.271a3.863 3.863 0 0 0-1.129 2.334l-.379 3.407c-.031.332 0 .667.093.988H16a1 1 0 0 0 0 2h3v27a1 1 0 0 0 2 0V40h11v8h-7a1 1 0 0 0 0 2h20a2 2 0 0 0 2-2V33a1 1 0 0 0-2 0v5H21V27h14.708c.098 0 .195-.005.292-.016l3.417-.389a3.916 3.916 0 0 0 2.3-1.095l9.488-9.5zM45 40v8H34v-8zM57.69 6.682l-1.468 1.469-4.372-4.372 1.469-1.469a1.026 1.026 0 0 1 1.476.004L57.687 5.2c.201.198.314.469.313.751 0 .275-.113.539-.31.731z" fill="#285b6c" data-original="#428dff" class=""></path></g></g></g></svg>