<svg width="77" height="84" viewBox="0 0 77 84" fill="none" xmlns="http://www.w3.org/2000/svg">
<g clip-path="url(#clip0_90_2)">
<path fill-rule="evenodd" clip-rule="evenodd" d="M63.6739 12.9037C68.0367 16.6685 71.4939 21.3599 73.7904 26.6315L68.4341 28.7012C66.5087 24.3612 63.6555 20.4907 60.0732 17.3592L63.6729 12.9037H63.6739Z" fill="white"/>
<path fill-rule="evenodd" clip-rule="evenodd" d="M49.2545 5.07037C53.6452 6.34588 57.771 8.39277 61.4368 11.1143L57.8371 15.5683C54.8193 13.3585 51.4414 11.6824 47.8516 10.6134L49.2554 5.07037H49.2545Z" fill="white"/>
<path fill-rule="evenodd" clip-rule="evenodd" d="M30.773 10.1632C25.3294 11.4726 20.3159 14.1525 16.214 17.9455C16.1314 17.8223 16.0527 17.6967 15.974 17.5693C15.315 16.4712 14.9181 15.2236 14.9181 13.9407C14.9181 12.9381 14.9881 12.1016 15.1605 11.3702C18.3866 8.92033 21.983 6.99494 25.8155 5.66577C26.0756 5.74885 26.3369 5.84338 26.5993 5.94937C27.9681 6.50081 29.1858 7.56311 30.0674 8.88752C30.338 9.29278 30.574 9.71982 30.773 10.1642V10.1632ZM11.1528 23.8777C7.61274 29.1962 5.72974 35.4359 5.73985 41.8145C5.73985 59.6612 20.1779 74.1533 38.0702 74.3672L39.8941 79.0833L39.8864 79.0867L40.2512 80.0416C39.6618 80.0678 39.0686 80.0841 38.4724 80.0841C17.2233 80.0821 4.70335e-05 62.9483 4.70335e-05 41.8145C-0.0132674 33.3603 2.80058 25.1417 7.99853 18.453C8.08636 18.7142 8.18044 18.9748 8.28363 19.2327C8.55323 19.9084 8.8718 20.5637 9.23682 21.1935C9.76404 22.0945 10.368 22.9489 11.0419 23.7473L11.1528 23.8777ZM53.9587 70.5009C57.7984 68.4424 61.1881 65.6446 63.9303 62.2704L66.3416 64.0708L67.2588 64.7554L67.256 64.7607L68.5163 65.7093C64.7696 70.368 59.9831 74.0941 54.5366 76.5921L54.6052 76.3701C54.9086 75.3856 55.137 74.5176 55.137 74.1337C55.137 73.642 54.815 72.6293 54.431 71.6511V71.642C54.2842 71.2658 54.1195 70.869 53.9578 70.4995L53.9587 70.5009ZM70.3483 49.2196C71.7278 43.3023 71.426 37.1199 69.4767 31.3634L74.8311 29.2942C77.2507 36.2812 77.5953 43.8137 75.8237 50.9904C74.5715 50.1496 73.1541 49.3136 71.8319 48.5583L70.3483 49.2177V49.2196Z" fill="white"/>
<path fill-rule="evenodd" clip-rule="evenodd" d="M38.4709 3.54548C41.1594 3.54389 43.8406 3.82216 46.4708 4.37574L45.0679 9.91785C42.9355 9.48417 40.765 9.26251 38.5885 9.25612C38.1086 7.45904 37.3118 5.75363 36.2012 4.26068C36.0476 4.0549 35.8892 3.8477 35.7246 3.6424C36.6324 3.57874 37.5488 3.54691 38.4738 3.54691L38.4709 3.54548Z" fill="white"/>
<path fill-rule="evenodd" clip-rule="evenodd" d="M10.9629 37.2024C10.9629 37.5195 12.1225 40.3464 12.3279 40.7326C12.7075 40.5326 13.3051 40.3383 13.7562 40.163C14.0284 40.0566 14.2184 40.0017 14.4853 39.8923C14.8093 39.7596 14.9403 39.6536 15.33 39.6464C15.5854 40.734 20.4915 53.1059 21.2815 55.1775C21.4389 55.5886 21.5589 55.8765 21.7134 56.288C21.8267 56.5941 22.0081 57.0849 22.1545 57.3861C22.8975 56.9956 23.915 56.701 24.7021 56.3902C25.5886 56.0388 31.8785 53.5733 32.6214 53.4033C32.6646 53.9233 35.2554 60.3945 35.5065 61.0338C37.0034 64.8494 38.3862 68.6675 39.9269 72.4775L42.151 78.2301C42.5311 79.1721 44.1615 83.153 44.3588 83.9985C44.6746 83.8319 46.1682 83.2146 46.5426 83.1836C46.5109 82.8059 46.3679 82.5629 46.2301 82.2287C46.0862 81.8706 45.9993 81.6037 45.8539 81.2456C44.0459 76.794 42.4793 72.3094 40.6674 67.8492C40.1424 66.5568 39.7181 65.3474 39.1973 64.0612L35.1302 53.5342C34.9929 53.1761 34.8144 52.9187 34.8048 52.5005C35.2199 52.4661 35.5041 52.2289 35.8967 52.1381C36.079 52.9164 38.3891 58.6857 38.8086 59.7418L43.2275 71.186C43.4877 71.8664 43.6816 72.4173 43.9542 73.0881L47.2587 81.6586C47.3782 81.9876 47.5572 82.3194 47.6331 82.6436C48.2863 82.6292 48.8958 82.2616 49.4799 82.0363C50.7912 81.5278 50.2959 81.8114 51.1262 79.3297C51.2807 78.8685 52.7288 74.5171 52.7288 74.1351C52.7288 73.7293 51.5226 70.7931 51.2735 70.4235C49.9556 70.4235 48.4442 70.2077 47.119 70.0301C46.6391 69.9657 46.6871 70.0425 46.5191 69.7217C46.5104 69.705 46.0391 68.4326 46.0367 68.404C45.9887 67.8387 48.8166 64.5663 48.8166 63.9972C48.8166 63.7246 48.6371 63.4553 48.5325 63.1918C48.2244 62.4107 47.6206 62.5277 46.3482 62.108C45.1138 61.7003 45.4224 61.7065 44.8767 60.3124C44.7442 59.9781 44.6924 59.7585 44.5407 59.4711L45.6585 57.8669C45.9599 57.4683 46.2623 57.22 46.0578 56.7039C45.4176 55.0935 43.7142 50.4494 43.1781 49.3337C44.031 49.1355 44.8987 48.6963 45.7526 48.364C46.6381 48.0188 47.4238 47.7161 48.3117 47.3805C48.9875 47.1241 52.9601 45.4898 53.5514 45.4406C53.538 44.8644 52.1202 41.5371 51.886 40.9422L48.4543 32.0456C48.1274 31.2259 46.9184 28.346 46.7264 27.519C47.0677 27.4904 47.8855 27.1123 48.1946 26.9886C48.6477 26.8072 49.2635 26.5403 49.7305 26.4324C49.4794 25.9125 49.2601 25.2622 49.0283 24.6864C48.0972 22.3737 49.0897 23.15 44.307 21.9612C42.9631 21.627 41.6797 21.33 40.3574 21.0015C39.0351 20.6731 37.6826 20.3131 36.3502 20.0046C36.1856 20.3135 36.068 20.5838 35.8784 20.8936C35.3385 21.7788 34.7308 22.643 34.0066 23.3763L33.3279 24.0586C32.5518 24.7313 31.7513 25.3997 30.8734 25.9612C30.4851 26.2109 30.3484 26.1598 30.069 26.5193C28.3489 28.7274 24.43 27.7821 24.43 24.621C24.43 22.9266 25.8526 21.531 27.615 21.5434C28.5269 21.5501 29.0813 20.992 29.6855 20.4353C30.0743 20.0782 30.9488 19.1715 31.0726 18.6463C30.3258 18.6296 25.508 17.3148 24.6114 17.1075L11.8551 35.9167C11.7591 36.0599 10.9634 37.1972 10.9634 37.2024H10.9629ZM26.1478 35.338L29.8055 33.9673L31.1835 37.6068L27.5257 38.9776L26.1478 35.338ZM32.1573 33.2163L35.8141 31.8451L37.1921 35.4851L33.5329 36.8582L32.1573 33.2163ZM28.4424 41.2072L32.1016 39.836L33.4796 43.476L29.8204 44.8467L28.4424 41.2072ZM34.4501 39.0864L38.1088 37.7147L39.4867 41.3547L35.8256 42.7259L34.4477 39.0864H34.4501Z" fill="white"/>
<path fill-rule="evenodd" clip-rule="evenodd" d="M37.8972 13.849C37.8972 16.4597 37.2862 17.2517 36.8955 18.918C37.4902 18.9657 40.6421 19.8041 41.4455 20.0042L48.2359 21.6699C49.6245 22.017 49.1728 21.7587 49.6888 23.0306C49.8697 23.4756 51.1766 26.7107 51.1838 27.1552L48.2719 28.2414C48.7437 29.2192 51.2117 35.9176 51.7046 37.138C52.3117 38.64 52.8344 40.0661 53.4204 41.5858C53.5903 42.0274 55.0667 45.7142 55.0969 46.0737C54.5555 46.1988 53.9311 46.576 53.3691 46.7063C53.5491 46.9742 54.3463 47.5266 54.6698 47.7672L62.9365 54.0254C64.6764 55.3236 74.9311 63.24 75.39 63.3622C77.3487 60.4499 77.3516 62.2956 76.3177 58.1844L75.1764 53.7075C75.0401 53.2515 74.7564 53.1914 74.2059 52.7722C73.9804 52.6012 72.1205 51.1422 72.0231 51.1422C71.7965 51.1422 69.3171 52.3153 68.8074 52.5588C68.589 52.6633 68.4805 52.724 68.2621 52.8309L67.7476 53.1336C67.2365 52.7932 66.794 52.3821 66.2914 52.0474C66.2914 51.5881 66.3822 51.5542 66.3822 51.0515V46.9799C66.3822 46.724 66.1993 46.7092 65.8369 46.4351C65.1055 45.8823 65.297 46.164 63.2658 46.5951C62.1907 46.8238 62.4911 46.8591 61.7155 46.2814C61.25 45.9353 60.8382 45.5652 60.3769 45.2602L60.4988 42.5283C60.4787 42.3674 60.6102 42.5345 60.3659 42.2895L53.3657 37.0215C53.4588 36.6247 53.6163 36.1845 53.741 35.7658C54.317 33.8355 54.365 32.3388 54.365 30.323C54.365 25.5859 51.8337 20.4625 48.2902 17.3568C45.7464 15.1276 41.2694 12.8531 37.8953 12.8531V13.8485L37.8972 13.849Z" fill="white"/>
<path fill-rule="evenodd" clip-rule="evenodd" d="M17.4231 25.6165L18.97 23.2627C18.5457 23.0402 18.132 22.8655 17.7125 22.6129C14.7968 20.854 12.5103 17.5296 12.5103 13.9412C12.5103 11.2064 13.0061 9.36495 14.5122 7.24274C14.6873 6.99759 14.8762 6.76247 15.078 6.53851C15.3276 6.25492 15.4222 6.08399 15.7159 5.81615C15.8844 5.66242 15.9156 5.66194 16.072 5.53589C16.5117 5.1845 16.3845 5.18689 17.1318 4.68892C20.3475 2.54809 23.8905 2.26353 27.5123 3.72449C31.1422 5.18832 33.8957 9.2179 33.8957 13.3076C33.8938 17.3716 32.0858 20.3389 29.016 22.3918C28.0868 23.0125 28.6138 22.7179 27.5243 22.7179C26.071 22.7179 25.0155 24.5193 26.0513 25.8132C26.7444 26.6797 28.0148 26.7504 28.7751 26.1345C29.602 25.4661 28.3791 26.0968 30.25 24.9772C32.14 23.8456 33.721 22.2009 34.8575 20.325C37.5578 15.8572 37.3178 9.78175 34.2739 5.68629C33.3836 4.4884 32.2955 3.30244 31.039 2.47743C28.3047 0.685601 26.3206 0 22.7026 0C20.8721 0 19.2839 0.513723 17.9314 1.04702C10.8535 3.83717 7.28545 13.0174 11.3329 20.0013C12.1196 21.3596 13.4236 22.9829 14.6557 23.9373C15.307 24.4415 16.6792 25.4441 17.425 25.6174L17.4231 25.6165Z" fill="white"/>
<path fill-rule="evenodd" clip-rule="evenodd" d="M49.4531 48.1549C49.5659 48.5727 51.9969 50.2017 52.3266 50.4562C57.551 54.5144 63.3992 58.8734 68.7181 62.8442L71.7207 65.1078C72.0812 65.3761 72.8563 66.1324 73.294 66.1677C73.378 65.854 73.7423 65.5098 73.9319 65.2644C74.1556 64.9731 74.3898 64.6914 74.5678 64.3572C74.0701 64.0259 73.5719 63.6143 73.0598 63.2324L52.3156 47.571C51.8078 47.1742 51.9729 47.1995 50.4692 47.8059C50.163 47.9295 49.8251 48.069 49.455 48.1549H49.4531Z" fill="white"/>
<path fill-rule="evenodd" clip-rule="evenodd" d="M25.5215 16.1126C25.9534 16.1474 26.6422 16.3685 27.0684 16.474L31.7998 17.6509C31.8675 17.3592 32.2553 16.5265 32.4881 15.6199C32.6944 14.8168 32.7093 14.0185 32.7093 13.0345C30.7069 13.2002 28.0873 14.4449 26.3019 15.5301C25.9794 15.7268 25.7125 15.828 25.5215 16.1126Z" fill="white"/>
</g>
<defs>
<clipPath id="clip0_90_2">
<rect width="77" height="84" fill="white"/>
</clipPath>
</defs>
</svg>
