<svg xmlns="http://www.w3.org/2000/svg" version="1.1" xmlns:xlink="http://www.w3.org/1999/xlink" xmlns:svgjs="http://svgjs.com/svgjs" width="512" height="512" x="0" y="0" viewBox="0 0 61 60" style="enable-background:new 0 0 512 512" xml:space="preserve"><g><g fill="#000" fill-rule="evenodd"><path fill-rule="nonzero" d="M11.384 15.616a5.006 5.006 0 0 0 7.073 0l2.463-2.464 12.532 12.539a5 5 0 0 0 7.074 0l4.462-4.464 5.455 5.459-.738.739a2.384 2.384 0 0 0 1.506 4.069l6.456.5c.051 0 .1.006.151.006A2.192 2.192 0 0 0 60 29.657v-.008l-.5-6.44a2.39 2.39 0 0 0-4.08-1.509l-.742.742-6.153-6.165a5.01 5.01 0 0 0-7.074 0l-4.462 4.464L24.457 8.2a5 5 0 0 0-7.073 0l-2.463 2.465-9.8-9.8a3 3 0 0 0-4.231 0 2.976 2.976 0 0 0-.005 4.24zM2.3 2.284a1 1 0 0 1 1.4 0l9.8 9.8c.373.377.883.587 1.413.585.53.002 1.04-.21 1.413-.586L18.8 9.614a3.073 3.073 0 0 1 4.245 0l12.53 12.538a2 2 0 0 0 2.828 0l4.462-4.464a3.085 3.085 0 0 1 4.245 0l6.86 6.873a1 1 0 0 0 1.415 0l1.45-1.451a.369.369 0 0 1 .411-.09c.147.05.248.185.254.34l.5 6.44a.187.187 0 0 1-.058.148.208.208 0 0 1-.128.054l-6.451-.5a.376.376 0 0 1-.339-.254.363.363 0 0 1 .091-.4l1.449-1.45a1 1 0 0 0 0-1.414L46.4 19.813a2 2 0 0 0-2.828 0l-4.462 4.464a3.007 3.007 0 0 1-4.246 0L21.627 11.031a1 1 0 0 0-1.414 0l-3.17 3.169a3.078 3.078 0 0 1-4.244 0L2.3 3.687a.974.974 0 0 1 .005-1.4zM40 38a10 10 0 1 0-15.974 8H24a2.987 2.987 0 0 0-2.22 5 2.954 2.954 0 0 0 0 4A2.987 2.987 0 0 0 24 60h12a2.987 2.987 0 0 0 2.22-5 2.954 2.954 0 0 0 0-4A2.987 2.987 0 0 0 36 46h-.026A9.98 9.98 0 0 0 40 38zm-3 15a1 1 0 0 1-1 1H24a1 1 0 0 1 0-2h12a1 1 0 0 1 1 1zm-1 5H24a1 1 0 0 1 0-2h12a1 1 0 0 1 0 2zm0-10a1 1 0 0 1 0 2H24a1 1 0 0 1 0-2zM22 38a8 8 0 1 1 8 8 8.009 8.009 0 0 1-8-8z" fill="#ffffff" data-original="#000000"></path><path d="M30 37a1 1 0 1 1 .867-1.5 1 1 0 0 0 1.731-1A2.993 2.993 0 0 0 31 33.2V33a1 1 0 0 0-2 0v.184A2.993 2.993 0 0 0 30 39a1 1 0 1 1-.867 1.5 1 1 0 0 0-1.731 1c.363.61.93 1.07 1.6 1.3v.2a1 1 0 0 0 2 0v-.184A2.993 2.993 0 0 0 30 37z" fill="#ffffff" data-original="#000000"></path><path fill-rule="nonzero" d="M4.026 38H4a2.987 2.987 0 0 0-2.22 5 2.954 2.954 0 0 0 0 4 2.954 2.954 0 0 0 0 4 2.954 2.954 0 0 0 0 4A2.987 2.987 0 0 0 4 60h12a2.987 2.987 0 0 0 2.22-5 2.954 2.954 0 0 0 0-4 2.954 2.954 0 0 0 0-4 2.954 2.954 0 0 0 0-4A2.987 2.987 0 0 0 16 38h-.026a10 10 0 1 0-11.948 0zM17 45a1 1 0 0 1-1 1H4a1 1 0 0 1 0-2h12a1 1 0 0 1 1 1zm0 4a1 1 0 0 1-1 1H4a1 1 0 0 1 0-2h12a1 1 0 0 1 1 1zm0 4a1 1 0 0 1-1 1H4a1 1 0 0 1 0-2h12a1 1 0 0 1 1 1zm-1 5H4a1 1 0 0 1 0-2h12a1 1 0 0 1 0 2zm0-18a1 1 0 0 1 0 2H4a1 1 0 0 1 0-2zm-6-18a8 8 0 1 1-8 8 8.009 8.009 0 0 1 8-8z" fill="#ffffff" data-original="#000000"></path><path d="M10 31a1 1 0 1 1-.867 1.5 1 1 0 0 0-1.731 1c.363.61.93 1.07 1.6 1.3v.2a1 1 0 0 0 2 0v-.184A2.993 2.993 0 0 0 10 29a1 1 0 1 1 .867-1.5 1 1 0 0 0 1.731-1A2.993 2.993 0 0 0 11 25.2V25a1 1 0 0 0-2 0v.184A2.993 2.993 0 0 0 10 31z" fill="#ffffff" data-original="#000000"></path><path fill-rule="nonzero" d="M51 36a9.987 9.987 0 0 0-5.974 18H45a3 3 0 0 0 0 6h12a3 3 0 0 0 0-6h-.026A9.987 9.987 0 0 0 51 36zm6 20a1 1 0 0 1 0 2H45a1 1 0 0 1 0-2zm-6-2a8 8 0 1 1 8-8 8.009 8.009 0 0 1-8 8z" fill="#ffffff" data-original="#000000"></path><path d="M51 45a1 1 0 1 1 .867-1.5 1 1 0 0 0 1.731-1A2.993 2.993 0 0 0 52 41.2V41a1 1 0 0 0-2 0v.184A2.993 2.993 0 0 0 51 47a1 1 0 1 1-.867 1.5 1 1 0 0 0-1.731 1c.363.61.93 1.07 1.6 1.3v.2a1 1 0 0 0 2 0v-.184A2.993 2.993 0 0 0 51 45z" fill="#ffffff" data-original="#000000"></path></g></g></svg>