<svg width="32" height="32" viewBox="0 0 32 32" fill="none" xmlns="http://www.w3.org/2000/svg">
<path d="M5.16177 20.6452H4.12945C2.7042 20.6452 1.54883 19.4899 1.54883 18.0646C1.54883 17.2095 2.24208 16.5162 3.0972 16.5162H5.1617L5.16177 20.6452Z" fill="#BD4150"/>
<path d="M24.7749 0H5.67811L5.14648 1.03225V31.5H29.4201L30.4523 30.9678V5.67744L24.7749 0Z" fill="#ECEAEC"/>
<path d="M5.67873 29.4194V0C5.10867 0 4.64648 0.462125 4.64648 1.03225V30.9678C4.64648 31.5379 5.10867 32 5.67873 32H29.4207C29.9907 32 30.4529 31.5378 30.4529 30.9678H7.22711C6.37192 30.9678 5.67873 30.2745 5.67873 29.4194Z" fill="#DAD8DB"/>
<path d="M30.4528 5.58881C30.4528 5.31506 30.3441 5.0525 30.1505 4.85887L25.5937 0.302312C25.4001 0.10875 25.1376 0 24.8638 0H24.7754V5.16131C24.7754 5.44631 25.0065 5.67744 25.2915 5.67744H30.4528V5.58881Z" fill="#DAD8DB"/>
<path d="M19.0974 19.613H3.09742C2.91642 19.613 2.74261 19.5819 2.58111 19.5248L2.08398 20.3542V26.875C2.08398 27.7302 2.77723 28.4234 3.63236 28.4234H19.0974L20.1297 27.871V20.6452C20.1297 20.0751 19.6675 19.613 19.0974 19.613Z" fill="#E15F78"/>
<path d="M2.58108 19.5247C1.98108 19.3114 1.54883 18.7377 1.54883 18.0645V27.3548C1.54883 28.2099 2.24208 28.9031 3.0972 28.9031H19.0972C19.6673 28.9031 20.1295 28.441 20.1295 27.8709H4.12945C3.27433 27.8709 2.58108 27.1776 2.58108 26.3225V19.5247Z" fill="#DB4655"/>
<path d="M16.2778 23.7032H15.2647V22.7249H16.4099C16.6952 22.7249 16.926 22.4938 16.926 22.2088C16.926 21.9238 16.6951 21.6926 16.4099 21.6926H14.7485C14.4632 21.6926 14.2324 21.9238 14.2324 22.2088V26.3076C14.2324 26.5926 14.4633 26.8237 14.7485 26.8237C15.0338 26.8237 15.2647 26.5926 15.2647 26.3076V24.7355H16.2778C16.5631 24.7355 16.7939 24.5044 16.7939 24.2194C16.7939 23.9344 16.563 23.7032 16.2778 23.7032Z" fill="white"/>
<path d="M6.81236 21.6775H5.66267C5.52555 21.6775 5.39405 21.7322 5.29723 21.8292C5.20092 21.926 5.14686 22.0571 5.14686 22.1936H5.14648V26.3227C5.14648 26.6077 5.37736 26.8388 5.66261 26.8388C5.94786 26.8388 6.17873 26.6077 6.17873 26.3227V25.0426C6.4103 25.0413 6.66486 25.0402 6.8123 25.0402C7.7518 25.0402 8.51642 24.2859 8.51642 23.359C8.51649 22.4317 7.75186 21.6775 6.81236 21.6775ZM6.81236 24.0079C6.66617 24.0079 6.41417 24.0089 6.18386 24.0101C6.18286 23.772 6.18036 22.7097 6.18036 22.7097H6.81242C7.17686 22.7097 7.4843 23.0071 7.4843 23.3589C7.4843 23.7107 7.1768 24.0079 6.81236 24.0079Z" fill="white"/>
<path d="M11.1409 21.7385H10.0064C9.86924 21.7385 9.73774 21.793 9.64093 21.89C9.54418 21.987 9.48974 22.1185 9.49024 22.2556L9.49324 24.2537C9.49324 24.8108 9.4983 26.2635 9.4983 26.2635C9.4988 26.4003 9.55374 26.5316 9.65105 26.6282C9.7473 26.7239 9.87836 26.7778 10.0145 26.7778H10.0165C10.0165 26.7778 10.8577 26.7746 11.1833 26.769C12.3955 26.7476 13.2756 25.6917 13.2756 24.2582C13.2755 22.7511 12.4176 21.7385 11.1409 21.7385ZM11.1651 25.7367C11.0174 25.7392 10.7619 25.7415 10.5291 25.7428C10.5276 25.2703 10.5256 24.5943 10.5256 24.2536L10.5236 22.7707H11.141C12.1904 22.7707 12.2433 24.0097 12.2433 24.2581C12.2432 24.9847 11.9101 25.7237 11.1651 25.7367Z" fill="white"/>
<path d="M12.3708 17.4602C11.9726 17.4602 11.6127 17.253 11.3597 16.8621C10.9837 16.282 11.0825 15.625 11.6304 15.0595C12.1828 14.4889 13.3133 13.9521 14.6738 13.5138C15.0981 12.714 15.5301 11.7777 15.9338 10.7426C16.1723 10.131 16.3648 9.57958 16.519 9.08639C15.8391 7.83989 15.4348 6.67939 15.5422 5.92583C15.6516 5.1612 16.2226 4.73076 17.0715 4.77764C17.3235 4.79126 17.9248 4.92283 18.07 5.8487C18.1808 6.55664 17.9943 7.70101 17.6203 9.00145C18.328 10.1953 19.2983 11.474 20.2473 12.4553C21.6818 12.3679 22.8975 12.4725 23.5089 12.8414C23.9877 13.1302 24.1757 13.6012 24.0119 14.101C23.7438 14.9178 23.0961 15.292 22.2775 15.1012C21.5885 14.9404 20.7347 14.3388 19.8688 13.5037C18.4761 13.6262 16.837 13.9097 15.399 14.3326C14.5406 15.8731 13.6127 17.0725 12.8335 17.3704C12.6763 17.4307 12.521 17.4602 12.3708 17.4602ZM12.2256 16.3012C12.3118 16.4338 12.3592 16.431 12.3814 16.4285C12.71 16.395 13.2574 15.8276 13.8824 14.8687C13.4691 15.0459 13.0986 15.2379 12.7871 15.4441C12.0059 15.9615 12.1717 16.217 12.2256 16.3012ZM21.3184 13.4355C21.7594 13.7803 22.1692 14.0159 22.512 14.0961C22.7796 14.1583 22.9172 14.1266 23.0311 13.7795C22.8789 13.5486 22.2312 13.4378 21.3184 13.4355ZM17.2191 10.253C16.8829 11.2102 16.4716 12.2013 16.0225 13.1303C16.9898 12.8873 18.0094 12.696 18.9832 12.5746C18.3536 11.8611 17.7453 11.0598 17.2191 10.253ZM16.9706 5.78883C16.6041 5.78883 16.585 5.9262 16.5638 6.07133C16.5099 6.45264 16.644 6.99495 16.9086 7.6202C17.142 6.50601 17.0946 5.91658 16.9811 5.78883C16.9776 5.78883 16.9741 5.78883 16.9706 5.78883Z" fill="#E15F78"/>
</svg>
