<svg xmlns="http://www.w3.org/2000/svg" version="1.1" xmlns:xlink="http://www.w3.org/1999/xlink" xmlns:svgjs="http://svgjs.com/svgjs" width="512" height="512" x="0" y="0" viewBox="0 0 60 60" style="enable-background:new 0 0 512 512" xml:space="preserve" class=""><g><g fill="none" fill-rule="nonzero"><path fill="#f0f7f9" d="M19 48H8.938a3 3 0 0 1-2.95-2.48l-4.94-28A2.994 2.994 0 0 1 4 14h14.989z" data-original="#e8edfc" class=""></path><path fill="#85a3ad" d="M15.994 14h3v34h-3z" data-original="#cad9fc" class=""></path><path fill="#f0f7f9" d="M49 14h7a2.994 2.994 0 0 1 2.95 3.52l-4.94 28A3 3 0 0 1 51.062 48H49z" data-original="#e8edfc" class=""></path><path fill="#85a3ad" d="M56 14h-3a2.994 2.994 0 0 1 2.95 3.52l-4.94 28A3 3 0 0 1 49 47.84V48h2.061a3 3 0 0 0 2.95-2.48l4.94-28A2.994 2.994 0 0 0 56 14z" data-original="#cad9fc" class=""></path><path fill="#85a3ad" d="M49 14h5V9a3 3 0 0 0-3-3H35.3a5.028 5.028 0 0 1-2.43-.63l-6.74-3.74A5.028 5.028 0 0 0 23.7 1H9a3 3 0 0 0-3 3v10z" data-original="#a4c2f7" class=""></path><path fill="#85a3ad" d="M51 6h-3a3 3 0 0 1 3 3v5h3V9a3 3 0 0 0-3-3z" data-original="#7facfa" class=""></path><path fill="#85a3ad" d="M19 14h-8a4 4 0 1 1 8 0z" data-original="#cad9fc" class=""></path><path fill="#f0f7f9" d="M49 14v44.14a.506.506 0 0 1-.91.31l-1.29-1.72a1 1 0 0 0-1.6 0l-1.4 1.87a1 1 0 0 1-1.6 0l-1.4-1.87a1 1 0 0 0-1.6 0l-1.4 1.87a1 1 0 0 1-1.6 0l-1.4-1.87a1 1 0 0 0-1.6 0l-1.4 1.87a1 1 0 0 1-1.6 0l-1.4-1.87a1 1 0 0 0-1.6 0l-1.4 1.87a1 1 0 0 1-1.6 0l-1.4-1.87a1 1 0 0 0-1.6 0l-1.29 1.72a.506.506 0 0 1-.91-.31V14a4 4 0 0 0-4-4h30a4 4 0 0 1 4 4z" data-original="#e8edfc" class=""></path><path fill="#85a3ad" d="M45 10h-3a4 4 0 0 1 4 4v42.333a1 1 0 0 1 .8.4l1.29 1.72a.506.506 0 0 0 .91-.31V14a4 4 0 0 0-4-4z" data-original="#cad9fc" class=""></path><path fill="#f0f7f9" d="m8.988 45.52-4.94-28A2.994 2.994 0 0 1 7 14h2V4a3 3 0 0 1 3-3H9a3 3 0 0 0-3 3v10H4a2.994 2.994 0 0 0-2.95 3.52l4.94 28A3 3 0 0 0 8.938 48h3a3 3 0 0 1-2.95-2.48z" data-original="#ffffff" class=""></path><path fill="#f0f7f9" d="m.069 17.697 1.97-.348 1.392 7.88-1.97.348z" data-original="#ffffff" class=""></path><g fill="#428dff"><path d="M2.728 21.285a1 1 0 1 0-1.97.348 1 1 0 0 0 1.97-.348z" fill="#285b6c" data-original="#428dff" class=""></path><path d="M56 13h-1V9a4 4 0 0 0-4-4H35.3c-.68 0-1.35-.172-1.946-.5L26.614.755A6.027 6.027 0 0 0 23.7 0H9a4 4 0 0 0-4 4v9H4a4 4 0 0 0-3.937 4.7 1 1 0 1 0 1.969-.353A1.994 1.994 0 0 1 4 15h14v32H8.938a1.991 1.991 0 0 1-1.964-1.652L3.423 25.225a1 1 0 1 0-1.97.347L5 45.691A3.988 3.988 0 0 0 8.938 49H18v9.143a1.508 1.508 0 0 0 2.715.9L22 57.334l1.4 1.866a2.059 2.059 0 0 0 3.2 0l1.4-1.866 1.4 1.866a2.059 2.059 0 0 0 3.2 0l1.4-1.866 1.4 1.866a2.059 2.059 0 0 0 3.2 0l1.4-1.866 1.4 1.866a2 2 0 0 0 3.2 0l1.4-1.867 1.285 1.714a1.508 1.508 0 0 0 2.715-.9V49h1.062A3.987 3.987 0 0 0 55 45.693l4.941-28A4 4 0 0 0 56 13zm-43.816 0a2.982 2.982 0 0 1 5.632 0zM48 56.667l-.4-.533a2.061 2.061 0 0 0-3.2 0L43 58l-1.4-1.865a2 2 0 0 0-3.2 0L37 58l-1.4-1.865a2.061 2.061 0 0 0-3.2 0L31 58l-1.4-1.865a2.061 2.061 0 0 0-3.2 0L25 58l-1.4-1.865a2.059 2.059 0 0 0-3.2 0l-.4.533V14a4.973 4.973 0 0 0-1-3h26a3 3 0 0 1 3 3zM45 9H15a5.009 5.009 0 0 0-4.9 4H7V4a2 2 0 0 1 2-2h14.7c.68 0 1.35.172 1.946.5l6.741 3.741A6.027 6.027 0 0 0 35.3 7H51a2 2 0 0 1 2 2v4h-3.1A5.009 5.009 0 0 0 45 9zm12.968 8.346-4.942 28A1.991 1.991 0 0 1 51.062 47H50V15h6a2 2 0 0 1 1.966 2.346z" fill="#285b6c" data-original="#428dff" class=""></path><path d="M23 21h2a1 1 0 0 0 0-2h-2a1 1 0 0 0 0 2zM45 19H29a1 1 0 0 0 0 2h16a1 1 0 0 0 0-2zM26 16h16a1 1 0 0 0 0-2H26a1 1 0 0 0 0 2zM23 25h2a1 1 0 0 0 0-2h-2a1 1 0 0 0 0 2zM45 23H29a1 1 0 0 0 0 2h16a1 1 0 0 0 0-2zM23 29h2a1 1 0 0 0 0-2h-2a1 1 0 0 0 0 2zM45 27H29a1 1 0 0 0 0 2h16a1 1 0 0 0 0-2zM23 33h2a1 1 0 0 0 0-2h-2a1 1 0 0 0 0 2zM34 37H23a1 1 0 0 0 0 2h11a1 1 0 0 0 0-2zM34 41H23a1 1 0 0 0 0 2h11a1 1 0 0 0 0-2zM34 45H23a1 1 0 0 0 0 2h11a1 1 0 0 0 0-2zM34 49H23a1 1 0 0 0 0 2h11a1 1 0 0 0 0-2zM45 31H29a1 1 0 0 0 0 2h16a1 1 0 0 0 0-2zM42 39a2 2 0 0 1 2 2 1 1 0 0 0 2 0 4 4 0 0 0-3-3.858V36a1 1 0 0 0-2 0v1.142A3.992 3.992 0 0 0 42 45a2 2 0 1 1-2 2 1 1 0 0 0-2 0 4 4 0 0 0 3 3.858V52a1 1 0 0 0 2 0v-1.142A3.992 3.992 0 0 0 42 43a2 2 0 1 1 0-4z" fill="#285b6c" data-original="#428dff" class=""></path></g></g></g></svg>