<svg width="52" height="52" viewBox="0 0 52 52" fill="none" xmlns="http://www.w3.org/2000/svg">
<path d="M38.5939 17.9465C37.8916 15.1391 36.2715 12.6468 33.9908 10.8653C31.7102 9.0839 28.8998 8.11545 26.0059 8.11377C23.1119 8.11209 20.3004 9.07728 18.0177 10.8561C15.735 12.6349 14.112 15.1253 13.4064 17.9319C10.0781 18.2442 6.99809 19.8267 4.80608 22.3506C2.61406 24.8745 1.47856 28.1458 1.63543 31.485C1.7923 34.8242 3.22948 37.9747 5.64846 40.282C8.06743 42.5893 11.2823 43.876 14.6252 43.875H19.5002C19.9311 43.875 20.3445 43.7038 20.6492 43.399C20.954 43.0943 21.1252 42.681 21.1252 42.25C21.1252 41.819 20.954 41.4057 20.6492 41.1009C20.3445 40.7962 19.9311 40.625 19.5002 40.625H14.6252C13.3448 40.6287 12.0762 40.3802 10.8918 39.8937C9.70747 39.4072 8.63055 38.6921 7.72253 37.7894C5.88872 35.9662 4.85426 33.4893 4.84672 30.9034C4.83918 28.3176 5.85917 25.8346 7.68232 24.0008C9.50547 22.167 11.9824 21.1325 14.5683 21.125C14.9852 21.1564 15.399 21.0318 15.7293 20.7753C16.0596 20.5189 16.2828 20.149 16.3558 19.7372C16.6867 17.4168 17.8436 15.2937 19.6141 13.7578C21.3846 12.2218 23.6498 11.3762 25.9937 11.3762C28.3375 11.3762 30.6027 12.2218 32.3732 13.7578C34.1437 15.2937 35.3006 17.4168 35.6315 19.7372C35.7165 20.1347 35.9368 20.4903 36.2548 20.7434C36.5728 20.9965 36.9688 21.1313 37.3752 21.125C39.961 21.125 42.441 22.1522 44.2694 23.9807C46.0979 25.8092 47.1252 28.2891 47.1252 30.875C47.1252 33.4608 46.0979 35.9408 44.2694 37.7693C42.441 39.5978 39.961 40.625 37.3752 40.625H32.5002C32.0692 40.625 31.6559 40.7962 31.3511 41.1009C31.0464 41.4057 30.8752 41.819 30.8752 42.25C30.8752 42.681 31.0464 43.0943 31.3511 43.399C31.6559 43.7038 32.0692 43.875 32.5002 43.875H37.3752C40.6936 43.8403 43.8731 42.5377 46.2622 40.2343C48.6513 37.9309 50.069 34.801 50.2248 31.4861C50.3806 28.1711 49.2627 24.9221 47.1003 22.4047C44.9378 19.8874 41.8945 18.2923 38.5939 17.9465Z" fill="#285B6C"/>
<path d="M32.9757 32.0239C33.2822 32.3199 33.6926 32.4837 34.1187 32.48C34.5448 32.4763 34.9524 32.3054 35.2536 32.0041C35.5549 31.7028 35.7258 31.2952 35.7295 30.8692C35.7332 30.4431 35.5694 30.0326 35.2734 29.7261L27.1484 21.6011C26.8437 21.2965 26.4305 21.1254 25.9996 21.1254C25.5687 21.1254 25.1554 21.2965 24.8507 21.6011L16.7257 29.7261C16.4297 30.0326 16.2659 30.4431 16.2696 30.8692C16.2733 31.2952 16.4442 31.7028 16.7455 32.0041C17.0468 32.3054 17.4543 32.4763 17.8804 32.48C18.3065 32.4837 18.717 32.3199 19.0234 32.0239L24.3746 26.6728V47.125C24.3746 47.556 24.5458 47.9693 24.8505 48.2741C25.1553 48.5788 25.5686 48.75 25.9996 48.75C26.4305 48.75 26.8439 48.5788 27.1486 48.2741C27.4534 47.9693 27.6246 47.556 27.6246 47.125V26.6728L32.9757 32.0239Z" fill="#285B6C"/>
</svg>
