<svg width="32" height="32" viewBox="0 0 32 32" fill="none" xmlns="http://www.w3.org/2000/svg">
<path d="M5.16177 20.6451H4.12945C2.7042 20.6451 1.54883 19.4897 1.54883 18.0645C1.54883 17.2094 2.24208 16.5161 3.0972 16.5161H5.1617L5.16177 20.6451Z" fill="#50AAA0"/>
<path d="M24.7749 0H5.67811L5.14648 1.03225V31.5H29.42L30.4523 30.9678V5.67744L24.7749 0Z" fill="#EBFFB9"/>
<path d="M5.67873 29.4194V0C5.10867 0 4.64648 0.462125 4.64648 1.03225V30.9678C4.64648 31.5379 5.10867 32 5.67873 32H29.4207C29.9907 32 30.4529 31.5378 30.4529 30.9678H7.22711C6.37192 30.9678 5.67873 30.2745 5.67873 29.4194Z" fill="#CDFAA0"/>
<path d="M30.4528 5.58881C30.4528 5.31506 30.3441 5.0525 30.1505 4.85887L25.5937 0.302312C25.4001 0.10875 25.1376 0 24.8638 0H24.7754V5.16131C24.7754 5.44631 25.0065 5.67744 25.2915 5.67744H30.4528V5.58881Z" fill="#CDFAA0"/>
<path d="M19.0974 19.6128H3.09742C2.91642 19.6128 2.74261 19.5818 2.58111 19.5247L2.08398 20.3541V26.8749C2.08398 27.7301 2.77723 28.4233 3.63236 28.4233H19.0974L20.1297 27.8708V20.6451C20.1297 20.075 19.6675 19.6128 19.0974 19.6128Z" fill="#8CE1A4"/>
<path d="M2.58108 19.5247C1.98108 19.3114 1.54883 18.7377 1.54883 18.0645V27.3548C1.54883 28.2099 2.24208 28.9031 3.0972 28.9031H19.0972C19.6673 28.9031 20.1295 28.441 20.1295 27.8709H4.12945C3.27433 27.8709 2.58108 27.1776 2.58108 26.3225V19.5247Z" fill="#78C2A4"/>
<path d="M11.8655 25.8029C11.8645 25.8029 11.8635 25.8029 11.8625 25.8029C11.5389 25.8047 11.1921 25.8059 10.9209 25.8064V22.1504C10.9209 21.8654 10.69 21.6343 10.4048 21.6343C10.1195 21.6343 9.88867 21.8654 9.88867 22.1504V26.319C9.88867 26.5705 10.0701 26.7855 10.3181 26.8278C10.3549 26.8342 10.3831 26.8389 10.8459 26.8389C11.0692 26.8389 11.3932 26.8377 11.8685 26.8352C12.1533 26.8337 12.3832 26.6013 12.3817 26.3163C12.3801 26.032 12.1492 25.8029 11.8655 25.8029Z" fill="white"/>
<path d="M15.7646 23.7853C15.2515 23.5958 14.7736 23.3896 14.628 23.3259C14.5116 23.2329 14.5156 23.1031 14.5237 23.0489C14.5343 22.9743 14.5882 22.7919 14.8589 22.7103C15.4516 22.5328 15.998 22.9651 16.0121 22.9766C16.2304 23.1578 16.554 23.1291 16.737 22.9116C16.9204 22.6934 16.8922 22.3678 16.674 22.1843C16.6346 22.1516 15.7022 21.3789 14.5616 21.7219C13.9875 21.8948 13.5818 22.3471 13.5016 22.9023C13.427 23.423 13.6528 23.924 14.0908 24.2095C14.1135 24.2244 14.1371 24.2375 14.1623 24.2486C14.1865 24.2594 14.7611 24.5152 15.4078 24.7536C15.5918 24.8217 16.0146 25.0137 15.9581 25.328C15.9163 25.5631 15.63 25.8066 15.2243 25.8066C14.808 25.8066 14.4072 25.6388 14.1527 25.3578C13.9617 25.1468 13.6351 25.1304 13.4239 25.3217C13.2122 25.5129 13.1961 25.8393 13.3876 26.0508C13.8346 26.5442 14.5211 26.8388 15.2243 26.8388C16.1008 26.8388 16.8371 26.2796 16.9743 25.5092C17.0781 24.9297 16.8145 24.1724 15.7646 23.7853Z" fill="white"/>
<path d="M7.35608 24.0883L8.51183 22.4476C8.67615 22.2148 8.62021 21.8927 8.38733 21.7286C8.15346 21.5643 7.8319 21.62 7.66808 21.8534L6.72533 23.1917L5.78402 21.8536C5.61971 21.6208 5.29815 21.5641 5.06477 21.7284C4.8314 21.8925 4.77546 22.2143 4.93927 22.4474L6.09365 24.0884L4.72908 26.0255C4.56477 26.2584 4.62071 26.5805 4.85358 26.7445C4.94433 26.8083 5.04765 26.8388 5.15046 26.8388C5.31277 26.8388 5.47252 26.7626 5.57283 26.6198L6.7244 24.985L7.87421 26.6195C7.97502 26.7624 8.13477 26.8388 8.29708 26.8388C8.3994 26.8388 8.50321 26.8083 8.59346 26.7448C8.82683 26.5807 8.88277 26.2589 8.71896 26.0258L7.35608 24.0883Z" fill="white"/>
<path d="M14.4512 10.3226H12.9028C12.6178 10.3226 12.3867 10.0915 12.3867 9.80643V8.77418C12.3867 8.48912 12.6178 8.25806 12.9028 8.25806H14.4512C14.7363 8.25806 14.9673 8.48912 14.9673 8.77418V9.80643C14.9673 10.0915 14.7363 10.3226 14.4512 10.3226Z" fill="#8CE1A4"/>
<path d="M22.7095 10.3226H20.645C20.36 10.3226 20.1289 10.0915 20.1289 9.80643V8.77418C20.1289 8.48912 20.36 8.25806 20.645 8.25806H22.7095C22.9946 8.25806 23.2257 8.48912 23.2257 8.77418V9.80643C23.2257 10.0915 22.9946 10.3226 22.7095 10.3226Z" fill="#8CE1A4"/>
<path d="M18.5806 10.3226H16.5161C16.2311 10.3226 16 10.0915 16 9.80643V8.77418C16 8.48912 16.2311 8.25806 16.5161 8.25806H18.5806C18.8657 8.25806 19.0968 8.48912 19.0968 8.77418V9.80643C19.0968 10.0915 18.8657 10.3226 18.5806 10.3226Z" fill="#8CE1A4"/>
<path d="M14.4512 13.4195H12.9028C12.6178 13.4195 12.3867 13.1884 12.3867 12.9034V11.8711C12.3867 11.586 12.6178 11.355 12.9028 11.355H14.4512C14.7363 11.355 14.9673 11.586 14.9673 11.8711V12.9034C14.9673 13.1884 14.7363 13.4195 14.4512 13.4195Z" fill="#8CE1A4"/>
<path d="M22.7095 13.4195H20.645C20.36 13.4195 20.1289 13.1884 20.1289 12.9034V11.8711C20.1289 11.586 20.36 11.355 20.645 11.355H22.7095C22.9946 11.355 23.2257 11.586 23.2257 11.8711V12.9034C23.2257 13.1884 22.9946 13.4195 22.7095 13.4195Z" fill="#8CE1A4"/>
<path d="M18.5806 13.4195H16.5161C16.2311 13.4195 16 13.1884 16 12.9034V11.8711C16 11.586 16.2311 11.355 16.5161 11.355H18.5806C18.8657 11.355 19.0968 11.586 19.0968 11.8711V12.9034C19.0968 13.1884 18.8657 13.4195 18.5806 13.4195Z" fill="#8CE1A4"/>
<path d="M14.4512 16H12.9028C12.6178 16 12.3867 15.769 12.3867 15.4839V14.9678C12.3867 14.6827 12.6178 14.4517 12.9028 14.4517H14.4512C14.7363 14.4517 14.9673 14.6827 14.9673 14.9678V15.4839C14.9673 15.769 14.7363 16 14.4512 16Z" fill="#8CE1A4"/>
<path d="M22.7095 16H20.645C20.36 16 20.1289 15.769 20.1289 15.4839V14.9678C20.1289 14.6827 20.36 14.4517 20.645 14.4517H22.7095C22.9946 14.4517 23.2257 14.6827 23.2257 14.9678V15.4839C23.2257 15.769 22.9946 16 22.7095 16Z" fill="#8CE1A4"/>
<path d="M18.5806 16H16.5161C16.2311 16 16 15.769 16 15.4839V14.9678C16 14.6827 16.2311 14.4517 16.5161 14.4517H18.5806C18.8657 14.4517 19.0968 14.6827 19.0968 14.9678V15.4839C19.0968 15.769 18.8657 16 18.5806 16Z" fill="#8CE1A4"/>
<path d="M13.9356 15.4839C13.3655 15.4839 12.9033 15.0217 12.9033 14.4517H12.3872C12.1022 14.4517 11.8711 14.6827 11.8711 14.9678V16C11.8711 16.2851 12.1022 16.5162 12.3872 16.5162H14.4517C14.7368 16.5162 14.9678 16.2851 14.9678 16V15.4839H13.9356Z" fill="#78C2A4"/>
<path d="M12.9033 13.4195H12.3872C12.1022 13.4195 11.8711 13.1884 11.8711 12.9034V11.8711C11.8711 11.586 12.1022 11.355 12.3872 11.355H12.9033V13.4195Z" fill="#78C2A4"/>
<path d="M19.0968 15.4839V16C19.0968 16.2851 18.8657 16.5161 18.5806 16.5161H16.5161C16.2311 16.5161 16 16.2851 16 16V15.4839H19.0968Z" fill="#78C2A4"/>
<path d="M23.2257 15.4839V16C23.2257 16.2851 22.9946 16.5161 22.7095 16.5161H20.645C20.36 16.5161 20.1289 16.2851 20.1289 16V15.4839H23.2257Z" fill="#78C2A4"/>
<path d="M12.9033 10.3226H12.3872C12.1022 10.3226 11.8711 10.0915 11.8711 9.80643V8.77418C11.8711 8.48912 12.1022 8.25806 12.3872 8.25806H12.9033V10.3226Z" fill="#78C2A4"/>
</svg>
